<svg width="18" height="17" viewBox="0 0 18 17" fill="none" xmlns="http://www.w3.org/2000/svg">
<path fill-rule="evenodd" clip-rule="evenodd" d="M3.07579 0.292893C2.68526 -0.0976311 2.0521 -0.0976311 1.66157 0.292893C1.27105 0.683417 1.27105 1.31658 1.66157 1.70711L7.76949 7.81502L1.24736 14.3372C0.856837 14.7277 0.856837 15.3608 1.24736 15.7514C1.63789 16.1419 2.27105 16.1419 2.66157 15.7514L9.18371 9.22924L15.7058 15.7514C16.0964 16.1419 16.7295 16.1419 17.12 15.7514C17.5106 15.3608 17.5106 14.7277 17.12 14.3371L10.5979 7.81502L16.7058 1.70711C17.0964 1.31659 17.0964 0.683423 16.7058 0.292899C16.3153 -0.0976257 15.6821 -0.0976254 15.2916 0.292899L9.18371 6.40081L3.07579 0.292893Z" fill="white"/>
</svg>
