<svg width="17" height="17" viewBox="0 0 17 17" fill="none" xmlns="http://www.w3.org/2000/svg">
<path fill-rule="evenodd" clip-rule="evenodd" d="M0.292893 14.3371C-0.0976311 14.7277 -0.0976311 15.3608 0.292893 15.7514C0.683417 16.1419 1.31658 16.1419 1.70711 15.7514L8.22924 9.22923L14.7521 15.7521C15.1426 16.1426 15.7758 16.1426 16.1663 15.7521C16.5568 15.3616 16.5568 14.7284 16.1663 14.3379L9.64345 7.81502L15.7521 1.70639C16.1426 1.31587 16.1426 0.6827 15.7521 0.292176C15.3616 -0.0983483 14.7284 -0.098348 14.3379 0.292176L8.22924 6.40081L2.12132 0.292889C1.7308 -0.0976356 1.09763 -0.0976356 0.707107 0.292889C0.316582 0.683413 0.316582 1.31658 0.707107 1.7071L6.81502 7.81502L0.292893 14.3371Z" fill="#A5A5A5"/>
</svg>
