<svg width="21" height="21" viewBox="0 0 21 21" fill="none" xmlns="http://www.w3.org/2000/svg">
<path fill-rule="evenodd" clip-rule="evenodd" d="M10.7378 4.77258L6.86309 8.64092L6.86317 8.64076L4.60878 6.38997L10.7378 0.270996L16.8687 6.3918L14.6143 8.6426L10.7378 4.77258ZM3.01676 7.97907L0.762207 10.2303L3.0166 12.4807L5.27116 10.2298L3.01676 7.97907ZM10.7378 15.6879L6.86309 11.8198L4.60559 14.0674L4.60878 14.0706L10.7378 20.1895L16.8687 14.0688L16.8699 14.0676L14.6142 11.818L10.7378 15.6879ZM18.4589 7.98034L16.2044 10.2312L18.4588 12.4819L20.7133 10.2311L18.4589 7.98034ZM13.0254 10.229H13.0246L13.0267 10.2301L13.0256 10.2314L10.7379 12.5153L8.45221 10.233L8.44902 10.2298L8.45221 10.2267L8.85283 9.82663L9.04707 9.63262L10.7379 7.94504L13.0254 10.229Z" fill="#F3BA2F"/>
</svg>
