<?xml version="1.0" standalone="no"?>
<!DOCTYPE svg PUBLIC "-//W3C//DTD SVG 20010904//EN"
 "http://www.w3.org/TR/2001/REC-SVG-20010904/DTD/svg10.dtd">
<svg version="1.0" xmlns="http://www.w3.org/2000/svg"
 width="1178.000000pt" height="301.000000pt" viewBox="0 0 1178.000000 301.000000"
 preserveAspectRatio="xMidYMid meet">

<g transform="translate(0.000000,301.000000) scale(0.100000,-0.100000)"
fill="#000000" stroke="none">
<path d="M2069 2850 c42 -6 71 -29 71 -57 0 -10 -14 -11 -59 -7 -57 6 -62 5
-138 -38 -43 -25 -94 -55 -113 -65 -19 -11 -120 -70 -225 -130 -104 -61 -235
-136 -290 -168 -118 -68 -288 -180 -305 -200 -17 -21 -38 -19 -45 5 -7 23 8
54 37 74 12 9 19 16 15 16 -19 0 -71 -48 -88 -82 -18 -35 -19 -64 -19 -445 0
-404 1 -408 23 -448 44 -79 139 -95 233 -40 77 45 78 50 81 385 2 162 6 310 9
328 6 40 52 93 107 125 23 13 130 75 237 137 107 62 240 138 295 170 267 151
289 170 301 267 5 46 3 63 -15 99 -25 52 -72 84 -121 83 -33 -1 -33 -2 9 -9z
m-929 -722 c19 12 20 11 12 -5 -11 -23 -9 -124 7 -465 15 -300 14 -312 -36
-363 -38 -37 -101 -35 -145 4 l-33 29 -3 117 c-5 145 14 519 29 600 15 81 22
88 81 80 37 -5 48 -4 48 7 0 10 3 9 10 -2 8 -13 13 -13 30 -2z"/>
<path d="M2277 2602 c-22 -24 -39 -106 -31 -148 7 -40 68 -98 148 -142 171
-94 395 -228 419 -251 59 -54 57 -38 57 -571 0 -394 3 -497 14 -524 16 -39 91
-103 137 -116 76 -22 148 16 170 89 7 24 9 236 7 641 -3 629 -4 649 -45 664
-11 5 -11 1 -2 -16 8 -15 8 -45 0 -112 -6 -50 -15 -137 -21 -193 -7 -75 -16
-114 -35 -149 -14 -26 -25 -52 -25 -58 0 -16 -67 -89 -73 -79 -5 8 -13 105
-23 283 -6 115 -24 167 -71 213 -16 14 -100 64 -188 110 -421 220 -408 212
-430 271 -16 40 -16 47 -2 75 18 36 17 38 -6 13z"/>
<path d="M2150 2341 c17 -32 12 -86 -11 -115 -13 -17 -104 -68 -247 -139 -311
-154 -363 -178 -374 -171 -5 3 -14 17 -19 31 -8 23 -13 25 -42 18 -58 -14 -81
-11 -85 8 -2 10 5 28 15 39 18 20 18 21 -2 10 -11 -5 -29 -20 -40 -32 -18 -20
-20 -39 -23 -229 -2 -130 1 -220 8 -243 12 -41 52 -75 99 -84 40 -8 110 18
142 52 22 24 24 35 29 163 7 185 6 184 229 312 341 197 351 205 351 297 0 38
-22 102 -36 102 -2 0 0 -9 6 -19z"/>
<path d="M1120 2340 c-9 -6 -10 -10 -3 -10 6 0 15 5 18 10 8 12 4 12 -15 0z"/>
<path d="M2296 2194 c-43 -30 -66 -75 -66 -133 0 -53 30 -87 121 -136 90 -49
141 -98 157 -151 8 -28 12 -126 12 -308 0 -297 1 -301 67 -352 30 -23 48 -29
86 -29 43 0 52 4 83 37 l34 38 1 167 c5 690 8 658 -53 689 -33 17 -33 17 -15
-3 18 -21 22 -48 8 -57 -5 -3 -26 7 -47 22 -56 39 -243 149 -279 162 -17 7
-49 9 -72 5 -33 -5 -43 -3 -43 7 0 28 28 51 71 58 42 7 43 8 9 9 -23 1 -49 -8
-74 -25z m416 -366 c9 -7 21 -38 27 -68 15 -78 31 -304 31 -448 l0 -124 -34
-34 c-46 -46 -86 -46 -132 0 l-34 34 0 114 c0 193 23 457 45 526 3 7 21 12 43
12 21 0 45 -6 54 -12z"/>
<path d="M2660 2056 c0 -2 7 -7 16 -10 8 -3 12 -2 9 4 -6 10 -25 14 -25 6z"/>
<path d="M5774 1890 c-67 -14 -110 -36 -158 -80 -64 -59 -89 -128 -89 -245 0
-121 25 -187 94 -249 68 -61 129 -81 254 -81 122 0 185 19 250 77 57 50 80 95
96 183 14 79 1 183 -31 245 -26 51 -101 115 -158 135 -56 19 -200 28 -258 15z
m198 -188 c36 -35 50 -97 41 -181 -5 -43 -13 -62 -39 -90 -31 -34 -36 -36 -98
-36 -61 0 -68 2 -98 33 l-33 32 0 104 c0 97 2 106 25 131 35 38 57 45 118 42
44 -3 59 -9 84 -35z"/>
<path d="M9924 1890 c-137 -27 -211 -109 -234 -257 -21 -131 20 -268 97 -332
105 -87 334 -93 448 -12 49 35 95 118 95 172 l0 39 -95 0 c-79 0 -95 -3 -95
-15 0 -9 -6 -28 -14 -44 -38 -72 -172 -67 -211 9 -21 40 -21 190 0 230 21 42
68 63 122 57 53 -6 79 -28 95 -79 l11 -38 94 0 93 0 0 31 c0 81 -56 171 -129
208 -72 37 -184 49 -277 31z"/>
<path d="M10623 1890 c-95 -20 -164 -76 -183 -149 -34 -130 46 -213 249 -256
88 -18 120 -31 128 -51 19 -49 -117 -76 -171 -33 -14 11 -26 29 -26 40 0 17
-8 19 -101 19 l-101 0 7 -42 c18 -105 78 -156 210 -179 80 -14 192 -7 255 16
83 29 139 107 140 193 0 111 -65 165 -245 202 -78 16 -132 38 -139 56 -10 27
30 54 79 54 35 0 52 -6 70 -25 14 -13 25 -29 25 -35 0 -6 36 -10 96 -10 l97 0
-6 42 c-9 67 -65 125 -146 148 -50 15 -187 21 -238 10z"/>
<path d="M3620 1565 l0 -325 105 0 105 0 0 325 0 325 -105 0 -105 0 0 -325z"/>
<path d="M3980 1565 l0 -325 95 0 94 0 3 157 3 158 135 -157 135 -157 93 0 92
-1 0 325 0 325 -95 0 -95 0 -2 -159 -3 -159 -135 159 -135 158 -92 1 -93 0 0
-325z"/>
<path d="M4760 1565 l0 -325 95 0 94 0 3 157 3 158 135 -157 135 -157 93 0 92
-1 0 325 0 325 -95 0 -95 0 -2 -159 -3 -159 -135 159 -135 158 -92 1 -93 0 0
-325z"/>
<path d="M6330 1565 l0 -325 96 0 97 0 -5 205 c-3 113 -4 204 -3 203 2 -2 20
-64 40 -138 20 -74 45 -166 56 -203 l20 -68 81 3 81 3 58 214 c32 117 61 216
65 220 4 3 4 -3 0 -14 -4 -11 -10 -111 -13 -222 l-6 -203 106 0 107 0 0 325 0
325 -143 0 -142 0 -49 -190 c-27 -105 -51 -189 -53 -186 -2 2 -25 86 -52 187
l-47 184 -147 3 -147 3 0 -326z"/>
<path d="M7240 1565 l0 -325 285 0 285 0 0 80 0 80 -180 0 -180 0 0 45 0 45
150 0 150 0 0 75 0 75 -150 0 -150 0 0 45 0 45 175 0 175 0 0 80 0 80 -280 0
-280 0 0 -325z"/>
<path d="M7870 1805 l0 -85 110 0 110 0 0 -240 0 -240 105 0 105 0 0 240 0
240 105 0 105 0 0 85 0 85 -320 0 -320 0 0 -85z"/>
<path d="M8610 1571 l0 -321 105 0 105 0 0 115 0 115 40 0 40 0 57 -115 58
-115 112 0 c62 0 113 3 113 6 0 3 -29 60 -65 125 -36 66 -65 123 -65 127 1 4
19 20 41 35 112 77 99 254 -24 319 -40 22 -55 23 -279 26 l-238 3 0 -320z
m390 149 c11 -11 20 -29 20 -40 0 -11 -9 -29 -20 -40 -17 -17 -33 -20 -100
-20 l-80 0 0 60 0 60 80 0 c67 0 83 -3 100 -20z"/>
<path d="M9350 1565 l0 -325 105 0 105 0 0 325 0 325 -105 0 -105 0 0 -325z"/>
<path d="M1836 1671 c-88 -172 55 -380 246 -358 176 21 272 198 195 357 -15
30 -25 46 -21 35 26 -90 27 -116 10 -171 -80 -255 -426 -195 -426 74 0 24 7
57 16 73 8 17 13 33 10 36 -2 3 -16 -18 -30 -46z"/>
<path d="M1450 1340 l-35 -6 42 -6 c28 -4 114 -48 266 -137 124 -72 242 -138
263 -147 65 -27 127 -15 235 45 113 64 166 75 198 40 35 -37 27 -48 -32 -46
-48 2 -59 -2 -137 -54 -47 -30 -104 -68 -128 -83 -30 -19 -44 -36 -49 -56 -3
-17 -12 -30 -19 -30 -8 0 -14 -4 -14 -10 0 -32 -154 30 -440 177 -212 110
-228 119 -245 153 -17 33 -20 81 -5 98 5 7 3 6 -5 -1 -23 -20 -29 -78 -12
-119 18 -42 27 -48 462 -298 61 -35 126 -73 145 -86 69 -45 124 -55 177 -32
15 7 62 33 103 58 41 25 110 65 153 89 95 52 120 85 114 152 -2 25 -12 58 -23
72 -24 33 -92 77 -118 77 -11 0 -63 -25 -115 -55 -116 -66 -152 -79 -193 -71
-29 6 -172 79 -283 146 -27 17 -75 44 -105 60 -30 17 -68 39 -85 49 -37 22
-70 28 -115 21z"/>
<path d="M1035 1126 l-39 -24 44 5 c43 4 59 -4 450 -228 497 -285 514 -293
585 -287 44 4 76 18 192 85 422 246 416 243 455 243 22 0 48 -5 59 -10 10 -6
19 -7 19 -3 0 15 -83 63 -107 63 -24 0 -112 -43 -213 -104 -30 -18 -125 -73
-210 -121 -143 -82 -159 -89 -210 -90 -50 0 -66 6 -165 64 -60 35 -150 87
-200 116 -49 28 -182 105 -295 170 -113 65 -216 124 -230 131 -38 21 -90 17
-135 -10z"/>
<path d="M943 1063 c-21 -28 -28 -47 -28 -82 0 -64 29 -98 132 -157 47 -27
133 -77 192 -111 58 -34 144 -83 191 -109 47 -26 144 -82 215 -124 381 -224
381 -225 435 -215 29 5 271 139 402 221 21 13 40 24 43 24 3 0 22 11 43 24 20
13 82 49 137 82 137 79 155 99 155 164 0 28 -7 64 -15 80 -21 42 -27 37 -9 -6
26 -63 -11 -130 -96 -173 -19 -10 -141 -72 -270 -139 -256 -131 -313 -156
-377 -165 -33 -4 -43 -2 -43 9 0 8 -3 14 -7 14 -5 0 -17 20 -27 44 -22 50 -28
56 -161 143 -307 203 -729 451 -782 460 -17 3 -46 1 -63 -5 -36 -13 -49 3 -30
37 18 35 -7 24 -37 -16z"/>
</g>
</svg>
