<?xml version="1.0" standalone="yes"?>
<svg xmlns="http://www.w3.org/2000/svg" width="999" height="339">
<path style="fill:#070707; stroke:none;" d="M0 0L0 339L999 339L999 0L0 0z"/>
<path style="fill:#926b36; stroke:none;" d="M61 104C60.3384 112.137 53.497 120.788 51.2894 129C46.284 147.618 44.3352 167.735 46.1698 187C52.2293 250.632 100.382 307.68 163 322.497C187.829 328.372 210.08 325.969 235 324L235 323C225.666 322.721 217.557 313.038 211 307C242.334 298.893 267.163 291.969 293 271C289.17 276.202 280.762 279.514 278.137 285.285C273.881 294.639 292.119 296.068 297 294L294 298L300 294L299 291L309 286L310 285L318 277L317 275L322 273L323 267L326 267L324 265L326 259L313 251L293 271C312.488 251.51 327.476 228.08 334.16 201.09C337.349 188.214 336.965 174.75 340 162C346.036 166.135 354.493 171.941 357 179L358 179C358 140.715 350.327 105.55 325.54 75C315.288 62.3639 301.517 53.8638 291 42C284.057 44.4837 274.548 50.6162 267 49.9838C253.784 48.8765 240.729 38.966 227 37.1589C197.905 33.3294 171.093 36.348 144 48.0008C132.171 53.0885 122.64 63.5145 111 68.162C107.64 69.5036 104.639 67.7489 102.672 64.9445C96.5038 56.1484 116.931 44.5852 123 40.814C141.123 29.5536 160.981 22.1859 182 18.4637C191.553 16.7721 201.617 18.234 211 16C201.71 12.1017 186.641 15.9691 177 17.5864C139.571 23.8654 108.014 43.7099 83.159 72.0038C74.8246 81.4915 70.1573 95.7907 61 104z"/>
<path style="fill:#efe2c1; stroke:none;" d="M289 43L289 41C277.523 35.6417 267.14 28.618 255 24.5972C217.938 12.3218 177.811 14.7709 142 30.1505C130.185 35.2243 118.855 41.9836 109.004 50.2855C105.466 53.2672 99.3035 57.6309 101.067 62.9954C106.15 78.4562 126.758 57.8388 134 53.7191C162.629 37.4329 193.695 32.9068 226 37.1589C240.006 39.0025 253.542 49.4305 267 50.3997C273.356 50.8574 283.449 45.9252 289 43z"/>
<path style="fill:#926b36; stroke:none;" d="M213 16L213 17L221 18L213 16M225 17L225 18L228 18L225 17M229 18L229 19L233 19L229 18M233 19L233 20L239 20L233 19M240 20L240 21L243 21L240 20M244.667 21.3333L245.333 21.6667L244.667 21.3333M247.667 22.3333L248.333 22.6667L247.667 22.3333M250.667 23.3333L251.333 23.6667L250.667 23.3333M255 24L256 25L255 24M257 25L258 26L257 25M259 26L260 27L259 26M261.667 27.3333L262.333 27.6667L261.667 27.3333M264.667 28.3333L265.333 28.6667L264.667 28.3333M268 30L269 31L268 30M273 32L274 33L273 32M275 33L276 34L275 33M276.667 34.3333L277.333 34.6667L276.667 34.3333M278 35L279 36L278 35M280 36L281 37L280 36z"/>
<path style="fill:#070707; stroke:none;" d="M186 37.4283C165.278 40.3954 145.546 46.7102 128 58.3557C112.869 68.3983 100.249 81.0107 90.0285 96C80.9929 109.252 74.2161 125.27 71.0039 141C64.7867 171.444 67.3443 203.948 81.3704 232C107.033 283.324 166.265 310.882 222 302.869C240.047 300.274 257.58 293.435 273 283.771C336.51 243.967 353.472 156.075 310.961 95C295.244 72.4199 273.599 57.9229 249 46.6913C229.76 37.9066 207.137 34.4016 186 37.4283z"/>
<path style="fill:#926b36; stroke:none;" d="M282 37L283 38L282 37M284 38L285 39L284 38M285 39L286 40L285 39M287 40L288 41L287 40z"/>
<path style="fill:#0428ed; stroke:none;" d="M201.667 42.3333L202.333 42.6667L201.667 42.3333M196 43L197 44L196 43z"/>
<path style="fill:#926b36; stroke:none;" d="M197 43L197 44L212 49C207.876 43.4666 203.539 43.0043 197 43z"/>
<path style="fill:#0428ed; stroke:none;" d="M206 43L207 44L206 43M194 44L195 45L194 44z"/>
<path style="fill:#926b36; stroke:none;" d="M195 44L188 48L188 49L196 45L195 44z"/>
<path style="fill:#2aa5c8; stroke:none;" d="M119 145L118 145L117 163L115 163C115 151.278 111.579 133.826 116.363 123C123.456 106.951 150.611 96.6748 165 88.0501C177.196 80.7399 189.86 74.1885 202 66.7955C206.884 63.8215 212.95 59.5228 212.586 53C211.746 37.9325 192.804 46.0374 186 50.0116C163.047 63.4185 139.921 76.5273 117 89.9892C109.268 94.5301 94.662 99.228 91.0093 108.015C88.1883 114.8 90.0823 124.761 89.9961 132C89.8181 146.964 89 161.967 89 177C89 184.395 87.2436 194.1 93.2137 199.721C100.337 206.429 116.328 202.953 119.852 193.999C124.62 181.885 121.963 157.447 119 145z"/>
<path style="fill:#0428ed; stroke:none;" d="M209 45L210 46L209 45z"/>
<path style="fill:#070707; stroke:none;" d="M276 49L276 51L337 99C332.915 82.7971 316.976 66.9422 304.985 56.0502C301.038 52.4642 295.487 46.6177 290 45.6944C285.653 44.9629 280.094 47.6909 276 49z"/>
<path style="fill:#0428ed; stroke:none;" d="M210 46L211 47L210 46M211 47L212 48L211 47M187 48L188 49L187 48M212 48C213.317 60.5367 203.863 65.4019 194 70.7693C182.171 77.2063 170.745 84.4027 159 90.9892C146.238 98.1458 122.535 108.086 116.363 122C111.386 133.222 115 150.837 115 163L117 163L118 145L119 145L121 191L122 191C122 178.805 122.986 166.14 121.83 154C120.863 143.832 118.749 131.459 126.468 123.301C131.896 117.566 140.284 114.03 147 110C161.555 101.266 176.448 93.1308 191 84.3997C199.37 79.3776 211.328 75.23 214 65C195.449 76.4376 175.506 91.4924 155 99L155 98C172.105 90.6295 193.424 79.1064 207.985 67.4714C214.072 62.6072 216.772 54.6988 212 48M185 49L186 50L185 49z"/>
<path style="fill:#926b36; stroke:none;" d="M186 49L187 50L186 49M184.667 50.3333L185.333 50.6667L184.667 50.3333z"/>
<path style="fill:#0428ed; stroke:none;" d="M182 51L183 52L182 51z"/>
<path style="fill:#926b36; stroke:none;" d="M183 51L184 52L183 51z"/>
<path style="fill:#0428ed; stroke:none;" d="M180 52L181 53L180 52z"/>
<path style="fill:#926b36; stroke:none;" d="M181 52L182 53L181 52M179.667 53.3333L180.333 53.6667L179.667 53.3333M177.667 54.3333L178.333 54.6667L177.667 54.3333z"/>
<path style="fill:#0428ed; stroke:none;" d="M175 55L176 56L175 55z"/>
<path style="fill:#926b36; stroke:none;" d="M176 55L177 56L176 55M174 56L175 57L174 56M172.667 57.3333L173.333 57.6667L172.667 57.3333M170.667 58.3333L171.333 58.6667L170.667 58.3333z"/>
<path style="fill:#0428ed; stroke:none;" d="M168 59L169 60L168 59z"/>
<path style="fill:#926b36; stroke:none;" d="M169 59L170 60L169 59M167 60L168 61L167 60M165.667 61.3333L166.333 61.6667L165.667 61.3333z"/>
<path style="fill:#0428ed; stroke:none;" d="M163 62L164 63L163 62z"/>
<path style="fill:#926b36; stroke:none;" d="M164 62L165 63L164 62z"/>
<path style="fill:#0428ed; stroke:none;" d="M229 62L230 63L229 62z"/>
<path style="fill:#926b36; stroke:none;" d="M230 62L230 63L239 63L230 62z"/>
<path style="fill:#0428ed; stroke:none;" d="M239 62L240 63L239 62M161 63L162 64L161 63z"/>
<path style="fill:#926b36; stroke:none;" d="M162 63L163 64L162 63z"/>
<path style="fill:#0428ed; stroke:none;" d="M227 63L228 64L227 63z"/>
<path style="fill:#926b36; stroke:none;" d="M228 63L229 64L228 63z"/>
<path style="fill:#2aa5c8; stroke:none;" d="M276 119C269.394 108.111 245.627 97.01 234 92C239.602 92.758 245.081 96.6513 250 99.4244C261.666 106.001 282.109 112.371 287.03 126C289.222 132.071 287.859 139.644 288.015 146C288.309 157.996 289 169.943 289 182C289 195.732 289.656 209.31 290.015 223C290.172 229.008 292.285 235.345 299.001 236.566C312.924 239.096 312 220.674 312 212C312 185.331 312.998 158.589 313 132C313.001 123.52 315.82 109.619 308.891 103.379C293.431 89.4539 269.947 80.5297 252 69.9892C244.911 65.8259 236.599 60.2005 228.04 64.0895C219.682 67.887 217.245 83.2944 223.228 89.8951C227.302 94.3887 233.801 97.0282 239 99.9992C250.585 106.62 263.078 115.437 276 119z"/>
<path style="fill:#926b36; stroke:none;" d="M240 63L241 64L240 63z"/>
<path style="fill:#0428ed; stroke:none;" d="M241 63L242 64L241 63z"/>
<path style="fill:#926b36; stroke:none;" d="M160.667 64.3333L161.333 64.6667L160.667 64.3333M226 64L227 65L226 64M242 64L243 65L242 64M158.667 65.3333L159.333 65.6667L158.667 65.3333M225 65L226 66L225 65M244 65L245 66L244 65z"/>
<path style="fill:#0428ed; stroke:none;" d="M156 66L157 67L156 66z"/>
<path style="fill:#926b36; stroke:none;" d="M157 66L158 67L157 66M246 66L247 67L246 66z"/>
<path style="fill:#0428ed; stroke:none;" d="M154 67L155 68L154 67z"/>
<path style="fill:#926b36; stroke:none;" d="M155 67L156 68L155 67z"/>
<path style="fill:#0428ed; stroke:none;" d="M223 67L224 68L223 67z"/>
<path style="fill:#926b36; stroke:none;" d="M247 67L248 68L247 67z"/>
<path style="fill:#0428ed; stroke:none;" d="M248 67L249 68L248 67z"/>
<path style="fill:#926b36; stroke:none;" d="M153.667 68.3333L154.333 68.6667L153.667 68.3333z"/>
<path style="fill:#0428ed; stroke:none;" d="M222 68L223 69L222 68z"/>
<path style="fill:#926b36; stroke:none;" d="M249 68L250 69L249 68z"/>
<path style="fill:#0428ed; stroke:none;" d="M151 69L152 70L151 69z"/>
<path style="fill:#926b36; stroke:none;" d="M152 69L153 70L152 69M251 69L252 70L251 69z"/>
<path style="fill:#0428ed; stroke:none;" d="M149 70L150 71L149 70z"/>
<path style="fill:#926b36; stroke:none;" d="M150 70L151 71L150 70z"/>
<path style="fill:#0428ed; stroke:none;" d="M221.333 70.6667L221.667 71.3333L221.333 70.6667z"/>
<path style="fill:#926b36; stroke:none;" d="M252 70L253 71L252 70z"/>
<path style="fill:#0428ed; stroke:none;" d="M253 70L254 71L253 70M147 71L148 72L147 71z"/>
<path style="fill:#926b36; stroke:none;" d="M148 71L149 72L148 71M254 71L255 72L254 71z"/>
<path style="fill:#0428ed; stroke:none;" d="M255 71L256 72L255 71z"/>
<path style="fill:#926b36; stroke:none;" d="M146.667 72.3333L147.333 72.6667L146.667 72.3333M256 72L257 73L256 72z"/>
<path style="fill:#0428ed; stroke:none;" d="M144 73L145 74L144 73z"/>
<path style="fill:#926b36; stroke:none;" d="M145 73L146 74L145 73z"/>
<path style="fill:#0428ed; stroke:none;" d="M220 73L220 77L221 77L220 73z"/>
<path style="fill:#926b36; stroke:none;" d="M258 73L259 74L258 73z"/>
<path style="fill:#0428ed; stroke:none;" d="M142 74L143 75L142 74z"/>
<path style="fill:#926b36; stroke:none;" d="M143 74L144 75L143 74M259 74L260 75L259 74z"/>
<path style="fill:#0428ed; stroke:none;" d="M260 74L261 75L260 74M140 75L141 76L140 75z"/>
<path style="fill:#926b36; stroke:none;" d="M141 75L142 76L141 75M261 75L262 76L261 75z"/>
<path style="fill:#0428ed; stroke:none;" d="M262 75L263 76L262 75z"/>
<path style="fill:#926b36; stroke:none;" d="M139.667 76.3333L140.333 76.6667L139.667 76.3333M263 76L264 77L263 76z"/>
<path style="fill:#0428ed; stroke:none;" d="M137 77L138 78L137 77z"/>
<path style="fill:#926b36; stroke:none;" d="M138 77L139 78L138 77z"/>
<path style="fill:#0428ed; stroke:none;" d="M219 77L219 85L220 85L219 77M265 77L266 78L265 77M550 77.5293C527.832 82.6452 525.073 119.541 537.532 134.957C544.171 143.171 557.189 144.738 567 142.471C580.766 139.289 585.847 124.643 585.996 112C586.255 90.1214 574.195 71.9457 550 77.5293M901 116L885 116C883.49 130.642 869.261 128.268 867.301 115C866.426 109.081 866.676 101.002 870.652 96.1481C877.54 87.7383 883.686 98.7386 885 105L901 105C900.983 98.8185 900.364 92.3888 897.005 87.0008C889.642 75.188 869.347 72.9893 859.043 82.2137C852.406 88.1559 850.106 97.3939 850.004 106C849.871 117.2 849.988 129.68 859.043 137.786C877.484 154.295 900.825 137.193 901 116M923 120L907 120C907.019 126.75 907.649 133.757 913.185 138.442C923.464 147.141 947.065 145.267 952.517 132C956.948 121.219 954.37 108.4 943 103.468C938.863 101.674 929.143 101.145 926.921 96.7415C924.239 91.4238 934.902 92.166 937 98L953 98C952.818 76.2314 917.713 66.4252 909.147 88C904.949 98.5751 908.359 110.776 919 115.647C923.542 117.727 932.277 117.92 935.248 122.35C937.484 125.683 932.389 127.033 930 126.808C925.91 126.423 924.019 123.588 923 120M135 78L136 79L135 78z"/>
<path style="fill:#926b36; stroke:none;" d="M136 78L137 79L136 78M266 78L267 79L266 78z"/>
<path style="fill:#0428ed; stroke:none;" d="M267 78L268 79L267 78M384 78L384 142L401 142L401 78L384 78M411 78L411 142L427 142L427 114L428 114C430.698 121.013 440.201 138.339 447.3 141.397C451.364 143.147 457.637 142 462 142L462 78L446 78L446 107C441.088 99.7184 433.79 82.1941 425.674 78.6034C421.662 76.8283 415.324 78 411 78M472 78L472 142L488 142L488 114L489 114C491.698 121.013 501.201 138.339 508.3 141.397C512.364 143.147 518.637 142 523 142L523 78L507 78L507 107C502.088 99.7184 494.79 82.1941 486.674 78.6034C482.662 76.8283 476.324 78 472 78M592 78L592 142L608 142L608 112L609 112C609.267 118.207 610.684 136.96 615.738 140.972C618.667 143.297 625.457 142 629 142L635 110L636 110L636 142L653 142L653 78C647.702 78 634.996 75.6484 630.738 79.0278C624.951 83.6216 624.849 103.854 623 111L622 111L616 78L592 78M768 78L768 142L785 142L785 119C795.158 120.653 792.43 134.526 798.699 140.397C802.54 143.994 813.053 142 818 142C815.873 134.558 808.322 125.047 808.554 117.325C808.651 114.079 813.143 111.002 814.467 107.996C818.138 99.6576 817.336 87.4473 809.956 81.3943C800.787 73.873 779.312 78 768 78M825 78L825 142L842 142L842 78L825 78M133 79L134 80L133 79z"/>
<path style="fill:#926b36; stroke:none;" d="M134 79L135 80L134 79M268 79L269 80L268 79z"/>
<path style="fill:#0428ed; stroke:none;" d="M269 79L270 80L269 79M662 79L662 142L707 142L707 127L679 127L679 117L702 117L702 102L679 102L679 94L706 94L706 79L662 79M711 79L711 95L728 95L728 143L745 143L745 95L761 95L761 79L711 79z"/>
<path style="fill:#926b36; stroke:none;" d="M132.667 80.3333L133.333 80.6667L132.667 80.3333M270 80L271 81L270 80z"/>
<path style="fill:#0428ed; stroke:none;" d="M130 81L131 82L130 81z"/>
<path style="fill:#926b36; stroke:none;" d="M131 81L132 82L131 81M271 81L272 82L271 81z"/>
<path style="fill:#0428ed; stroke:none;" d="M272 81L273 82L272 81M128 82L129 83L128 82z"/>
<path style="fill:#926b36; stroke:none;" d="M129 82L130 83L129 82M273 82L274 83L273 82z"/>
<path style="fill:#0428ed; stroke:none;" d="M274 82L275 83L274 82z"/>
<path style="fill:#efe2c1; stroke:none;" d="M78 83C65.6386 101.927 34.6641 148.765 66 164L76.064 121L90 91L78 83z"/>
<path style="fill:#926b36; stroke:none;" d="M127.667 83.3333L128.333 83.6667L127.667 83.3333M275 83L276 84L275 83z"/>
<path style="fill:#0428ed; stroke:none;" d="M276 83L277 84L276 83z"/>
<path style="fill:#926b36; stroke:none;" d="M125.667 84.3333L126.333 84.6667L125.667 84.3333z"/>
<path style="fill:#0428ed; stroke:none;" d="M224 84L230 89L230 88L224 84z"/>
<path style="fill:#926b36; stroke:none;" d="M277 84L278 85L277 84z"/>
<path style="fill:#0428ed; stroke:none;" d="M123 85L124 86L123 85z"/>
<path style="fill:#926b36; stroke:none;" d="M124 85L125 86L124 85M278 85L279 86L278 85z"/>
<path style="fill:#0428ed; stroke:none;" d="M279 85L280 86L279 85M121 86L122 87L121 86z"/>
<path style="fill:#926b36; stroke:none;" d="M122 86L123 87L122 86z"/>
<path style="fill:#0428ed; stroke:none;" d="M220 86L221 87L220 86z"/>
<path style="fill:#926b36; stroke:none;" d="M280 86L281 87L280 86z"/>
<path style="fill:#0428ed; stroke:none;" d="M281 86L282 87L281 86z"/>
<path style="fill:#926b36; stroke:none;" d="M120.667 87.3333L121.333 87.6667L120.667 87.3333M282 87L283 88L282 87z"/>
<path style="fill:#0428ed; stroke:none;" d="M118 88L119 89L118 88z"/>
<path style="fill:#926b36; stroke:none;" d="M119 88L120 89L119 88z"/>
<path style="fill:#0428ed; stroke:none;" d="M221 88L222 89L221 88z"/>
<path style="fill:#926b36; stroke:none;" d="M284 88L285 89L284 88z"/>
<path style="fill:#0428ed; stroke:none;" d="M116 89L117 90L116 89z"/>
<path style="fill:#926b36; stroke:none;" d="M117 89L118 90L117 89M195 90L195 91L205 90L195 90z"/>
<path style="fill:#0428ed; stroke:none;" d="M205 89L206 90L205 89M222 89L223 90L222 89M231 89L234 91L234 90L231 89z"/>
<path style="fill:#926b36; stroke:none;" d="M285 89L286 90L285 89z"/>
<path style="fill:#0428ed; stroke:none;" d="M286 89L287 90L286 89z"/>
<path style="fill:#926b36; stroke:none;" d="M115.667 90.3333L116.333 90.6667L115.667 90.3333z"/>
<path style="fill:#2aa5c8; stroke:none;" d="M206 113L206 114L183 129C190.839 125.736 205.34 120.023 210.234 112.91C215.671 105.006 214.031 91.0745 203 90.1088C195.61 89.4618 189.129 94.0706 183 97.5787C171.28 104.287 159.711 111.269 148 118C142.827 120.973 134.12 124.122 131.742 130.04C128.291 138.633 128.964 162.197 131.804 170.985C133.24 175.429 137.271 178.222 141.996 177.743C156.653 176.259 148.097 151.82 154.569 143.004C164.289 129.762 191.071 119.433 206 113z"/>
<path style="fill:#926b36; stroke:none;" d="M206.667 90.3333L207.333 90.6667L206.667 90.3333z"/>
<path style="fill:#0428ed; stroke:none;" d="M223 90L224 91L223 90z"/>
<path style="fill:#926b36; stroke:none;" d="M287 90L288 91L287 90M113.667 91.3333L114.333 91.6667L113.667 91.3333M193 91L194 92L193 91M208 91L209 92L208 91z"/>
<path style="fill:#0428ed; stroke:none;" d="M209 91L210 92L209 91M224 91L225 92L224 91M234 91L234 92C247.314 100.15 265.413 107.447 276 119L262 113L262 114C268.433 117.937 275.806 121.066 279.583 128C283.417 135.04 282 144.271 282 152L282 200C282 210.195 278.594 227.608 287 235L287 231L288 231C293.47 243.401 311.466 244.173 313.787 229C316.128 213.699 314 196.485 314 181C314 156.865 315.697 132.019 314 108L313 108C313 143.335 312.002 178.618 312 214C311.999 222.541 307.593 245.991 294.225 233.606C289.29 229.034 290.069 222.09 289.996 216C289.866 205.019 289 194.043 289 183C289 170.278 288.325 157.66 288.015 145C287.851 138.321 289.344 130.274 286.633 124C283.992 117.889 278.545 114.602 273 111.427C260.956 104.533 247.302 94.9127 234 91z"/>
<path style="fill:#926b36; stroke:none;" d="M289 91L290 92L289 91z"/>
<path style="fill:#0428ed; stroke:none;" d="M111 92L112 93L111 92z"/>
<path style="fill:#926b36; stroke:none;" d="M112 92L113 93L112 92z"/>
<path style="fill:#0428ed; stroke:none;" d="M191 92L192 93L191 92z"/>
<path style="fill:#926b36; stroke:none;" d="M192 92L193 93L192 92z"/>
<path style="fill:#0428ed; stroke:none;" d="M210 92L211 93L210 92M225 92L226 93L225 92z"/>
<path style="fill:#926b36; stroke:none;" d="M290.667 92.3333L291.333 92.6667L290.667 92.3333z"/>
<path style="fill:#0428ed; stroke:none;" d="M109 93L110 94L109 93z"/>
<path style="fill:#926b36; stroke:none;" d="M110 93L111 94L110 93z"/>
<path style="fill:#0428ed; stroke:none;" d="M189 93L190 94L189 93z"/>
<path style="fill:#926b36; stroke:none;" d="M190 93L191 94L190 93z"/>
<path style="fill:#0428ed; stroke:none;" d="M211 93L212 94L211 93M227 93L228 94L227 93z"/>
<path style="fill:#926b36; stroke:none;" d="M292 93L293 94L292 93z"/>
<path style="fill:#0428ed; stroke:none;" d="M293 93L294 94L293 93z"/>
<path style="fill:#070707; stroke:none;" d="M554.055 94.0278C542.713 100.139 547.174 134.545 562.895 125.821C573.779 119.781 569.637 85.6324 554.055 94.0278M785 93L785 105C801.522 104.998 801.522 93.0018 785 93z"/>
<path style="fill:#0428ed; stroke:none;" d="M107 94L108 95L107 94z"/>
<path style="fill:#926b36; stroke:none;" d="M108.667 94.3333L109.333 94.6667L108.667 94.3333M188 94L189 95L188 94z"/>
<path style="fill:#0428ed; stroke:none;" d="M228.667 94.3333L229.333 94.6667L228.667 94.3333z"/>
<path style="fill:#926b36; stroke:none;" d="M294 94L295 95L294 94z"/>
<path style="fill:#0428ed; stroke:none;" d="M295 94L296 95L295 94z"/>
<path style="fill:#926b36; stroke:none;" d="M106.667 95.3333L107.333 95.6667L106.667 95.3333M186 95L187 96L186 95z"/>
<path style="fill:#0428ed; stroke:none;" d="M212 95L213 96L212 95M230.667 95.3333L231.333 95.6667L230.667 95.3333z"/>
<path style="fill:#926b36; stroke:none;" d="M296 95L297 96L296 95z"/>
<path style="fill:#0428ed; stroke:none;" d="M104 96L105 97L104 96z"/>
<path style="fill:#926b36; stroke:none;" d="M105 96L106 97L105 96z"/>
<path style="fill:#0428ed; stroke:none;" d="M184 96L185 97L184 96M232 96L233 97L232 96M298 96L299 97L298 96M102 97L103 98L102 97z"/>
<path style="fill:#926b36; stroke:none;" d="M103 97L104 98L103 97z"/>
<path style="fill:#0428ed; stroke:none;" d="M182 97L183 98L182 97z"/>
<path style="fill:#926b36; stroke:none;" d="M183 97L184 98L183 97z"/>
<path style="fill:#0428ed; stroke:none;" d="M213 97L212 111L213 111L213 97M234 97L235 98L234 97z"/>
<path style="fill:#926b36; stroke:none;" d="M299 97L300 98L299 97z"/>
<path style="fill:#0428ed; stroke:none;" d="M300 97L301 98L300 97z"/>
<path style="fill:#926b36; stroke:none;" d="M101 98L102 99L101 98M181 98L182 99L181 98z"/>
<path style="fill:#0428ed; stroke:none;" d="M235.667 98.3333L236.333 98.6667L235.667 98.3333z"/>
<path style="fill:#926b36; stroke:none;" d="M301 98L302 99L301 98M99.6667 99.3333L100.333 99.6667L99.6667 99.3333z"/>
<path style="fill:#070707; stroke:none;" d="M147 103L147 104L155 100L147 103z"/>
<path style="fill:#926b36; stroke:none;" d="M179 99L180 100L179 99z"/>
<path style="fill:#0428ed; stroke:none;" d="M237.667 99.3333L238.333 99.6667L237.667 99.3333z"/>
<path style="fill:#926b36; stroke:none;" d="M303 99L304 100L303 99z"/>
<path style="fill:#0428ed; stroke:none;" d="M97 100L98 101L97 100z"/>
<path style="fill:#926b36; stroke:none;" d="M98 100L99 101L98 100z"/>
<path style="fill:#0428ed; stroke:none;" d="M177 100L178 101L177 100M239 100L240 101L239 100z"/>
<path style="fill:#926b36; stroke:none;" d="M304 100L305 101L304 100z"/>
<path style="fill:#0428ed; stroke:none;" d="M305 100L306 101L305 100z"/>
<path style="fill:#926b36; stroke:none;" d="M96 101L97 102L96 101M176 101L177 102L176 101z"/>
<path style="fill:#0428ed; stroke:none;" d="M240.667 101.333L241.333 101.667L240.667 101.333z"/>
<path style="fill:#926b36; stroke:none;" d="M306 101L307 102L306 101z"/>
<path style="fill:#0428ed; stroke:none;" d="M94 102L95 103L94 102z"/>
<path style="fill:#926b36; stroke:none;" d="M95 102L96 103L95 102M174 102L175 103L174 102z"/>
<path style="fill:#0428ed; stroke:none;" d="M242.667 102.333L243.333 102.667L242.667 102.333z"/>
<path style="fill:#926b36; stroke:none;" d="M308 102L309 103L308 102M93 103L94 104L93 103M172.667 103.333L173.333 103.667L172.667 103.333z"/>
<path style="fill:#0428ed; stroke:none;" d="M244.667 103.333L245.333 103.667L244.667 103.333z"/>
<path style="fill:#926b36; stroke:none;" d="M309 103L310 104L309 103z"/>
<path style="fill:#0428ed; stroke:none;" d="M92 104L93 105L92 104z"/>
<path style="fill:#070707; stroke:none;" d="M145 104L146 105L145 104z"/>
<path style="fill:#0428ed; stroke:none;" d="M170 104L171 105L170 104z"/>
<path style="fill:#926b36; stroke:none;" d="M171 104L172 105L171 104z"/>
<path style="fill:#0428ed; stroke:none;" d="M246.667 104.333L247.333 104.667L246.667 104.333z"/>
<path style="fill:#926b36; stroke:none;" d="M310 104L311 105L310 104z"/>
<path style="fill:#0428ed; stroke:none;" d="M91 105C86.4862 114.326 88 125.909 88 136L88 194L89 194L89.0394 144L91 105z"/>
<path style="fill:#070707; stroke:none;" d="M143 105L144 106L143 105z"/>
<path style="fill:#926b36; stroke:none;" d="M169 105L170 106L169 105z"/>
<path style="fill:#0428ed; stroke:none;" d="M248 105L249 106L248 105M311 105L312 106L311 105z"/>
<path style="fill:#926b36; stroke:none;" d="M91 106L92 107L91 106M167 106L168 107L167 106M222 112L234 107C229.005 105.056 224.961 108.078 222 112z"/>
<path style="fill:#0428ed; stroke:none;" d="M234 106L235 107L234 106M249.667 106.333L250.333 106.667L249.667 106.333M312.333 106.667L312.667 107.333L312.333 106.667z"/>
<path style="fill:#070707; stroke:none;" d="M636 106L637 107L636 106z"/>
<path style="fill:#0428ed; stroke:none;" d="M165 107L166 108L165 107z"/>
<path style="fill:#926b36; stroke:none;" d="M166 107L167 108L166 107z"/>
<path style="fill:#2aa5c8; stroke:none;" d="M250 183L249 183L249 175L247 175C247 184.278 243.858 200.582 248.164 208.907C253.363 218.957 269.318 221.302 273.196 208.999C278.591 191.881 273.029 167.823 273 150C272.99 143.958 273.908 133.273 270.12 128.326C263.981 120.306 244.704 110.279 235 107.641C229.968 106.273 223.512 108.526 222.079 114.005C219.026 125.672 242.796 133.606 248.005 142C254.621 152.66 250 170.932 250 183z"/>
<path style="fill:#926b36; stroke:none;" d="M235 107L235 108L239 109L239 108L235 107z"/>
<path style="fill:#0428ed; stroke:none;" d="M237 107L238 108L237 107M251.667 107.333L252.333 107.667L251.667 107.333z"/>
<path style="fill:#070707; stroke:none;" d="M138 108L139 109L138 108z"/>
<path style="fill:#0428ed; stroke:none;" d="M163 108L164 109L163 108z"/>
<path style="fill:#926b36; stroke:none;" d="M164 108L165 109L164 108z"/>
<path style="fill:#0428ed; stroke:none;" d="M224 108L225 109L224 108M253.667 108.333L254.333 108.667L253.667 108.333z"/>
<path style="fill:#070707; stroke:none;" d="M607 108L607 112L608 112L607 108z"/>
<path style="fill:#926b36; stroke:none;" d="M162 109L163 110L162 109z"/>
<path style="fill:#0428ed; stroke:none;" d="M210 109L206 112L206 113L210 109M223 109L224 110L223 109z"/>
<path style="fill:#926b36; stroke:none;" d="M239.667 109.333L240.333 109.667L239.667 109.333z"/>
<path style="fill:#0428ed; stroke:none;" d="M255 109L258 111L255 109z"/>
<path style="fill:#926b36; stroke:none;" d="M160 110L161 111L160 110z"/>
<path style="fill:#0428ed; stroke:none;" d="M222 110L223 111L222 110z"/>
<path style="fill:#926b36; stroke:none;" d="M241 110L242 111L241 110z"/>
<path style="fill:#0428ed; stroke:none;" d="M242 110L243 111L242 110M158 111L159 112L158 111z"/>
<path style="fill:#926b36; stroke:none;" d="M159 111L160 112L159 111z"/>
<path style="fill:#0428ed; stroke:none;" d="M211.333 111.667L211.667 112.333L211.333 111.667z"/>
<path style="fill:#926b36; stroke:none;" d="M243 111L246 113L246 112L243 111z"/>
<path style="fill:#0428ed; stroke:none;" d="M244 111L245 112L244 111M258.667 111.333L259.333 111.667L258.667 111.333M156 112L157 113L156 112z"/>
<path style="fill:#926b36; stroke:none;" d="M157 112L158 113L157 112z"/>
<path style="fill:#0428ed; stroke:none;" d="M221 112C218.446 119.61 220.809 126.091 228 130L228 131L219 125C222.98 136.603 239.07 137.107 244.543 148.001C247.272 153.432 246 161.096 246 167L246 208L247 208L247 175L249 175L249 183L250 183C250 170.874 254.565 152.983 248.583 142C243.491 132.652 232.38 129.928 225.394 122.535C222.378 119.345 222.556 115.709 221 112M260.667 112.333L261.333 112.667L260.667 112.333z"/>
<path style="fill:#926b36; stroke:none;" d="M155 113L156 114L155 113z"/>
<path style="fill:#0428ed; stroke:none;" d="M132 128L131 128C126.698 138.194 125.955 164.593 130.148 174.985C134.323 185.331 148.322 183.271 152 174L153 174L151 180C160.488 174.597 153.954 157.938 157.97 149C162.461 139.005 177.06 134.272 186 129L186 128L183 129L206 114C201.284 113.229 196.139 117.663 192 119.752C180.247 125.685 157.51 132.939 152.344 146C148.797 154.967 154.901 168.353 146.66 175.347C140.649 180.448 133.182 175.747 131.533 168.999C128.814 157.869 129.358 139.097 132 128M210 113L211 114L210 113z"/>
<path style="fill:#926b36; stroke:none;" d="M246 113L247 114L246 113z"/>
<path style="fill:#0428ed; stroke:none;" d="M247 113L248 114L247 113M153 114L154 115L153 114z"/>
<path style="fill:#926b36; stroke:none;" d="M154 114L155 115L154 114z"/>
<path style="fill:#0428ed; stroke:none;" d="M209 114L210 115L209 114z"/>
<path style="fill:#926b36; stroke:none;" d="M248 114L249 115L248 114z"/>
<path style="fill:#0428ed; stroke:none;" d="M249 114L250 115L249 114M151 115L152 116L151 115z"/>
<path style="fill:#926b36; stroke:none;" d="M152 115L153 116L152 115z"/>
<path style="fill:#0428ed; stroke:none;" d="M208 115L209 116L208 115z"/>
<path style="fill:#926b36; stroke:none;" d="M250 115L251 116L250 115z"/>
<path style="fill:#0428ed; stroke:none;" d="M251 115L252 116L251 115z"/>
<path style="fill:#926b36; stroke:none;" d="M150 116L151 117L150 116z"/>
<path style="fill:#0428ed; stroke:none;" d="M206 116L207 117L206 116z"/>
<path style="fill:#926b36; stroke:none;" d="M252 116L253 117L252 116M148 117L149 118L148 117z"/>
<path style="fill:#0428ed; stroke:none;" d="M204.667 117.333L205.333 117.667L204.667 117.333z"/>
<path style="fill:#926b36; stroke:none;" d="M253 117L254 118L253 117z"/>
<path style="fill:#0428ed; stroke:none;" d="M254 117L255 118L254 117M146 118L147 119L146 118z"/>
<path style="fill:#926b36; stroke:none;" d="M147 118L148 119L147 118z"/>
<path style="fill:#0428ed; stroke:none;" d="M202.667 118.333L203.333 118.667L202.667 118.333z"/>
<path style="fill:#926b36; stroke:none;" d="M255 118L256 119L255 118z"/>
<path style="fill:#0428ed; stroke:none;" d="M256 118L257 119L256 118M144 119L145 120L144 119z"/>
<path style="fill:#926b36; stroke:none;" d="M145 119L146 120L145 119z"/>
<path style="fill:#0428ed; stroke:none;" d="M200.667 119.333L201.333 119.667L200.667 119.333z"/>
<path style="fill:#926b36; stroke:none;" d="M257 119L258 120L257 119M143 120L144 121L143 120z"/>
<path style="fill:#0428ed; stroke:none;" d="M199 120L200 121L199 120z"/>
<path style="fill:#926b36; stroke:none;" d="M258.667 120.333L259.333 120.667L258.667 120.333z"/>
<path style="fill:#0428ed; stroke:none;" d="M141 121L142 122L141 121M197.667 121.333L198.333 121.667L197.667 121.333z"/>
<path style="fill:#926b36; stroke:none;" d="M260 121L261 122L260 121z"/>
<path style="fill:#0428ed; stroke:none;" d="M261 121L262 122L261 121M139 122L140 123L139 122z"/>
<path style="fill:#926b36; stroke:none;" d="M140 122L141 123L140 122z"/>
<path style="fill:#0428ed; stroke:none;" d="M195.667 122.333L196.333 122.667L195.667 122.333z"/>
<path style="fill:#926b36; stroke:none;" d="M262 122L263 123L262 122z"/>
<path style="fill:#0428ed; stroke:none;" d="M263 122L264 123L263 122M137 123L138 124L137 123z"/>
<path style="fill:#926b36; stroke:none;" d="M138 123L139 124L138 123z"/>
<path style="fill:#0428ed; stroke:none;" d="M193.667 123.333L194.333 123.667L193.667 123.333z"/>
<path style="fill:#926b36; stroke:none;" d="M264 123L265 124L264 123M136 124L137 125L136 124z"/>
<path style="fill:#0428ed; stroke:none;" d="M192 124L193 125L192 124z"/>
<path style="fill:#926b36; stroke:none;" d="M265 124L266 125L265 124z"/>
<path style="fill:#0428ed; stroke:none;" d="M266 124L267 125L266 124M134 125L135 126L134 125z"/>
<path style="fill:#926b36; stroke:none;" d="M135 125L136 126L135 125z"/>
<path style="fill:#0428ed; stroke:none;" d="M190.667 125.333L191.333 125.667L190.667 125.333z"/>
<path style="fill:#926b36; stroke:none;" d="M267 125L269 127L267 125z"/>
<path style="fill:#0428ed; stroke:none;" d="M268 125L269 126L268 125M133 126L134 127L133 126M188.667 126.333L189.333 126.667L188.667 126.333M269 126L270 127L269 126M132 127L133 128L132 127M186.667 127.333L187.333 127.667L186.667 127.333M270 127L271 130L272 130L270 127z"/>
<path style="fill:#926b36; stroke:none;" d="M270 128L271 129L270 128M131 129L132 130L131 129z"/>
<path style="fill:#2aa5c8; stroke:none;" d="M181 129L182 130L181 129z"/>
<path style="fill:#0428ed; stroke:none;" d="M272 130C272.814 151.639 274 173.331 274 195C274 203.466 274.355 214.499 264 217.153C257.81 218.739 252.808 212.906 248 210C253.118 220.495 270.149 222.841 274.196 209.999C279.59 192.883 274.448 168.704 274.015 151C273.856 144.533 275.78 135.534 272 130z"/>
<path style="fill:#070707; stroke:none;" d="M228 131L228 132L233 134L233 133L228 131M237 136L238 137L237 136z"/>
<path style="fill:#0428ed; stroke:none;" d="M197.667 146.333L198.333 146.667L197.667 146.333z"/>
<path style="fill:#926b36; stroke:none;" d="M199 146L199 147L204 147L199 146z"/>
<path style="fill:#0428ed; stroke:none;" d="M204.667 146.333L205.333 146.667L204.667 146.333M193 147L194 148L193 147z"/>
<path style="fill:#926b36; stroke:none;" d="M194 147L194 148L197 148L194 147z"/>
<path style="fill:#2aa5c8; stroke:none;" d="M197 147.465C166.304 153.027 175.798 198.755 206 193.674C236.197 188.595 227.345 141.966 197 147.465z"/>
<path style="fill:#926b36; stroke:none;" d="M206 147L206 148L209 148L206 147z"/>
<path style="fill:#0428ed; stroke:none;" d="M209 147L210 148L209 147z"/>
<path style="fill:#926b36; stroke:none;" d="M191.667 148.333L192.333 148.667L191.667 148.333M210 148L211 149L210 148z"/>
<path style="fill:#0428ed; stroke:none;" d="M211 148L212 149L211 148z"/>
<path style="fill:#926b36; stroke:none;" d="M189 149L190 150L189 149M212 149L213 150L212 149z"/>
<path style="fill:#0428ed; stroke:none;" d="M213 149L214 150L213 149M187 150L188 151L187 150z"/>
<path style="fill:#926b36; stroke:none;" d="M188 150L189 151L188 150M214 150L215 151L214 150z"/>
<path style="fill:#0428ed; stroke:none;" d="M215 150L216 151L215 150M186 151L187 152L186 151M216 151L217 152L216 151z"/>
<path style="fill:#926b36; stroke:none;" d="M185 152L186 153L185 152M217 152L218 153L217 152M184 153L185 154L184 153M218 153L219 154L218 153M183 154L184 155L183 154z"/>
<path style="fill:#0428ed; stroke:none;" d="M219 154L220 155L219 154M182 155L183 156L182 155M220 155L221 156L220 155M181 156L182 157L181 156M221 156L222 157L221 156M180 158L181 159L180 158M222 158L223 159L222 158M179.333 159.667L179.667 160.333L179.333 159.667M223.333 159.667L223.667 160.333L223.333 159.667M178.333 161.667L178.667 162.333L178.333 161.667M224 161L224 164L225 164L224 161z"/>
<path style="fill:#efe2c1; stroke:none;" d="M340 162C334.357 181.09 335.288 200.89 327.547 220C319.384 240.151 305.17 253.723 293 271C300.48 267.512 309.164 258.316 313 251L326 259L324 266C332.756 263.409 338.453 248.636 342.358 241C354.081 218.075 371.061 176.264 340 162z"/>
<path style="fill:#0428ed; stroke:none;" d="M177 164L177 170L178 170L177 164M225 164C225 174.147 223.749 182.883 214.996 189.442C200.413 200.37 179.541 189.513 178 172L177 172C177.82 210.49 238.459 196.076 225 164z"/>
<path style="fill:#efe2c1; stroke:none;" d="M568 170L568 247L590 247C590 236.587 588.141 224.195 590.279 214.004C591.062 210.269 594.689 205.877 598.985 206.817C603.127 207.724 604.724 212.293 604.956 216C605.598 226.253 605 236.726 605 247L627 247C627 225.712 634.703 186.099 602 190.185C597.596 190.735 593.859 192.978 590 195L590 170L568 170M710 170L710 185L732 185L732 170L710 170M558 217C552.747 217 540.89 214.774 536.588 218.028C531.188 222.112 532.981 229.119 524 229.891C507.692 231.293 505.185 206.17 512.652 196.044C517.488 189.486 527.353 189.338 532.121 196.094C533.794 198.463 534.402 201.223 535 204L558 204C557.917 174.041 519.316 163.179 497.039 179.221C487.248 186.271 483.873 199.471 484.019 211C484.161 222.271 487.46 234.881 497.039 241.779C519.659 258.068 557.917 247.18 558 217z"/>
<path style="fill:#926b36; stroke:none;" d="M357 186L358 187L357 186M357 189L358 190L357 189z"/>
<path style="fill:#efe2c1; stroke:none;" d="M636 209C642.096 209 648.881 209.849 654.896 208.853C662.055 207.667 671.908 198.519 673 213C666.716 213 660.207 212.499 654 213.616C640.665 216.016 624.84 233.625 640.105 245.348C651.509 254.106 662.551 245.051 674 244.634C679.701 244.427 699.245 256.051 702.682 244.772C703.666 241.544 703 237.351 703 234C688.137 232.867 698.692 208.149 692.991 199.04C682.114 181.662 637.04 186.284 636 209M763 198C762.45 188.071 751.534 191 744 191L744 247L766 247C766 236.464 764.33 224.363 766.228 214.001C766.961 210.004 770.459 205.769 774.957 206.542C779.368 207.301 780.736 212.185 780.957 216C781.55 226.265 781 236.717 781 247L803 247C803 226.415 809.668 179.126 774 191.105C769.716 192.544 766.321 195.019 763 198M710 191L710 247L732 247L732 191L710 191z"/>
<path style="fill:#0428ed; stroke:none;" d="M120 192L120 195L121 195L120 192M141.667 192.333L142.333 192.667L141.667 192.333z"/>
<path style="fill:#2aa5c8; stroke:none;" d="M143 192.611C132.042 194.05 123.869 205.738 133.133 214.787C145.538 226.904 167.574 234.534 183 242.247C189.105 245.3 195.849 249.811 203 248.782C212.53 247.412 232.164 234.953 238.442 227.699C243.149 222.261 242.173 214.486 234.996 211.743C221.207 206.474 210.299 227.918 195 221.471C182.857 216.353 171.382 206.426 160 199.6C155.051 196.633 149.13 191.806 143 192.611z"/>
<path style="fill:#0428ed; stroke:none;" d="M146.667 192.333L147.333 192.667L146.667 192.333M138.667 193.333L139.333 193.667L138.667 193.333M149.667 193.333L150.333 193.667L149.667 193.333M89 194C91.497 206.367 102.538 204.222 112 203L112 202C100.872 200.595 97.6191 203.543 89 194z"/>
<path style="fill:#926b36; stroke:none;" d="M136 194L137 195L136 194z"/>
<path style="fill:#0428ed; stroke:none;" d="M151 194L152 195L151 194M119.333 195.667L119.667 196.333L119.333 195.667M134 195L135 196L134 195M153 195L154 196L153 195M132 196L133 197L132 196M154.667 196.333L155.333 196.667L154.667 196.333M118 197L119 198L118 197M131 197L132 198L131 197M156 197L157 198L156 197M117 198L118 199L117 198M158 198L159 199L158 198z"/>
<path style="fill:#926b36; stroke:none;" d="M356 198L357 199L356 198z"/>
<path style="fill:#0428ed; stroke:none;" d="M116 199L117 200L116 199M130 199L131 200L130 199M159.667 199.333L160.333 199.667L159.667 199.333M115 200L116 201L115 200M129.333 200.667L129.667 201.333L129.333 200.667M161.667 200.333L162.333 200.667L161.667 200.333M113 201L114 202L113 201M163 201L164 202L163 201M164.667 202.333L165.333 202.667L164.667 202.333M128 203L129 212L130 212L128 203M166.667 203.333L167.333 203.667L166.667 203.333z"/>
<path style="fill:#926b36; stroke:none;" d="M355 203L356 204L355 203z"/>
<path style="fill:#0428ed; stroke:none;" d="M168.667 204.333L169.333 204.667L168.667 204.333M170 205L171 206L170 205M171.667 206.333L172.333 206.667L171.667 206.333M173 207L176 209L173 207M247.333 208.667L247.667 209.333L247.333 208.667M176.667 209.333L177.333 209.667L176.667 209.333M181 212C183.044 214.509 185.266 216.363 188.001 218.134C207.87 231.005 218.081 208.542 237 212C226.342 202.731 213.935 219.186 203 220.442C194.9 221.373 188.3 214.31 181 212M178 210L181 212L178 210z"/>
<path style="fill:#926b36; stroke:none;" d="M353.333 211.667L353.667 212.333L353.333 211.667z"/>
<path style="fill:#0428ed; stroke:none;" d="M130 212L135 217L130 212M237 212L237 213L240 216L241 216L237 212M100 214L100 215C110.988 215.57 121.805 224.294 131 229.8C150.476 241.462 170.486 254.009 191 263.737C199.126 267.59 221.198 266.616 221 254L245 240C228.034 239.965 215.583 264.88 197 260.468C189.377 258.658 181.77 252.712 175 248.85C161.019 240.874 146.896 233.105 133 224.988C122.065 218.601 113.132 211.562 100 214z"/>
<path style="fill:#926b36; stroke:none;" d="M238 213L239 214L238 213M239 214L240 215L239 214M352.333 214.667L352.667 215.333L352.333 214.667z"/>
<path style="fill:#0428ed; stroke:none;" d="M97 215L98 216L97 215z"/>
<path style="fill:#926b36; stroke:none;" d="M98.6667 215.333L99.3333 215.667L98.6667 215.333z"/>
<path style="fill:#2aa5c8; stroke:none;" d="M221 254C218.703 263.546 203.48 268.072 195 265.038C170.127 256.137 145.833 237.827 123 224.576C115.042 219.957 98.9976 208.113 92.1798 221.044C88.807 227.441 93.9303 233.911 99.0147 237.301C112.126 246.042 126.479 253.105 140 261.2C153.608 269.347 167.569 276.854 181 285.319C186.983 289.089 194.536 295.645 202 295.375C209.019 295.121 215.895 290.299 222 287.247C235.476 280.509 248.899 273.441 262 266C268.082 262.546 276.202 259.593 279.543 252.996C284.401 243.405 274.897 231.529 265 231.048C257.539 230.685 251.12 235.729 245 239.4C236.981 244.209 229.172 249.467 221 254z"/>
<path style="fill:#0428ed; stroke:none;" d="M95 216L96 217L95 216z"/>
<path style="fill:#926b36; stroke:none;" d="M96 216L97 217L96 216z"/>
<path style="fill:#0428ed; stroke:none;" d="M241.333 216.667L241.667 217.333L241.333 216.667z"/>
<path style="fill:#926b36; stroke:none;" d="M94 217L95 218L94 217z"/>
<path style="fill:#0428ed; stroke:none;" d="M135 217L135 218L142 221L142 220L135 217z"/>
<path style="fill:#926b36; stroke:none;" d="M93 218L94 219L93 218z"/>
<path style="fill:#0428ed; stroke:none;" d="M242 218C240.446 227.956 232.841 231.277 225 236.062C218.33 240.131 209.967 247.893 202 248.746C195.761 249.414 189.329 244.912 184 242.247C170.487 235.491 156.486 225.181 142 221L142 222C155.183 229.775 168.668 237.059 182 244.576C187.668 247.771 195.189 253.177 202 252.581C212.385 251.673 232.55 239.19 239.606 231.671C243.147 227.898 244.659 222.528 242 218z"/>
<path style="fill:#926b36; stroke:none;" d="M351 218L352 219L351 218M92 219L93 220L92 219z"/>
<path style="fill:#070707; stroke:none;" d="M60 220C58.1002 229.83 68.5248 244.973 73.6921 253C91.8995 281.282 123.591 310.151 158 316L158 315L153 314C151.206 309.006 145.319 307.138 141.325 304.106C133.768 298.369 128.697 285.049 119 283C117.736 275.458 99.4424 257.12 92 255L92 251L88 251L82.4059 241.961L60 220z"/>
<path style="fill:#0428ed; stroke:none;" d="M91 220C81.7475 241.927 123.374 255.729 138 264.397C152.603 273.05 167.28 281.699 182 290.15C188.111 293.658 195.58 299.338 203 298.775C217.751 297.655 236.32 282.247 249 275.001C257.921 269.902 274.33 264.501 279 255C262.109 266.031 244.057 275.719 226 284.753C219.115 288.198 210.784 294.285 203 294.995C193.044 295.904 181.106 284.664 173 279.8C155.156 269.093 137.17 258.44 119 248.309C105.158 240.591 93.6168 236.357 91 220z"/>
<path style="fill:#926b36; stroke:none;" d="M350 220L351 221L350 220M91 221L92 222L91 221z"/>
<path style="fill:#070707; stroke:none;" d="M673 224C670.679 224.002 668.306 223.891 665.998 224.185C647.347 226.561 666.518 243.03 672.258 229.897C673.061 228.058 672.953 225.954 673 224z"/>
<path style="fill:#926b36; stroke:none;" d="M348 227L349 228L348 227M347 229L348 230L347 229z"/>
<path style="fill:#0428ed; stroke:none;" d="M260 230L260 231L268 231L260 230M258 231L259 232L258 231M269 231L270 232L269 231z"/>
<path style="fill:#926b36; stroke:none;" d="M346 231L347 232L346 231z"/>
<path style="fill:#0428ed; stroke:none;" d="M256 232L257 233L256 232M271 232L272 233L271 232M254.667 233.333L255.333 233.667L254.667 233.333M272 233L273 234L272 233M252.667 234.333L253.333 234.667L252.667 234.333M273 234L274 235L273 234M251 235L252 236L251 235M274 235L275 236L274 235M249 236L250 237L249 236M247.667 237.333L248.333 237.667L247.667 237.333M246 238L247 239L246 238z"/>
<path style="fill:#926b36; stroke:none;" d="M343 238L344 239L343 238z"/>
<path style="fill:#0428ed; stroke:none;" d="M278 239L279 240L278 239M279 240L280 241L279 240M280.333 242.667L280.667 243.333L280.333 242.667z"/>
<path style="fill:#926b36; stroke:none;" d="M341 242L342 243L341 242z"/>
<path style="fill:#0428ed; stroke:none;" d="M281 244L281 251L282 251L281 244z"/>
<path style="fill:#926b36; stroke:none;" d="M339 246L340 247L339 246z"/>
<path style="fill:#0428ed; stroke:none;" d="M280 251L279 255L280 255L280 251z"/>
<path style="fill:#926b36; stroke:none;" d="M336 251L337 252L336 251M335 253L336 254L335 253M333 256L334 257L333 256M332 257L333 258L332 257M331 259L332 260L331 259M330 260L331 261L330 260z"/>
<path style="fill:#efe2c1; stroke:none;" d="M323 267L321 272L323 267M325 267L326 268L325 267M292 271C275.614 284.299 258.249 294.713 238 300.975C229.173 303.704 219.712 304.051 211 307C214.954 312.17 223.625 321.237 230.17 322.721C236.14 324.076 243.352 321.763 248.975 319.909C264.362 314.835 287.005 307.461 297 294C292.599 295.373 274.096 294.283 278.832 285.285C281.669 279.894 292.145 277.663 292 271M320 272L321 273L320 272M317 276L320 274L317 276M314 278L314 280L316 278L314 278M313 280L314 281L313 280M309 284L313 281L309 284M307 285L299 293C302.289 291.492 307.095 288.974 307 285z"/>
<path style="fill:#926b36; stroke:none;" d="M304 289L305 290L304 289z"/>
<path style="fill:#efe2c1; stroke:none;" d="M297 293L298 294L297 293z"/>
<path style="fill:#926b36; stroke:none;" d="M289 300L290 301L289 300M288 301L289 302L288 301M286 302L287 303L286 302M283 304L284 305L283 304M281 305L282 306L281 305M279 306L280 307L279 306M274 309L275 310L274 309M272 310L273 311L272 310M269 311L270 312L269 311M268 312L269 313L268 312M265.667 313.333L266.333 313.667L265.667 313.333M260 315L261 316L260 315M256 317L257 318L256 317M252 318L253 319L252 318M246 320L247 321L246 320M243 321L244 322L243 321M238 322L238 323L241 323L238 322z"/>
<path style="fill:#efe2c1; stroke:none;" d="M220.667 325.333L221.333 325.667L220.667 325.333M188 326L189 327L188 326M215.667 326.333L216.333 326.667L215.667 326.333z"/>
</svg>
