<svg width="24" height="25" viewBox="0 0 24 25" fill="none" xmlns="http://www.w3.org/2000/svg">
<path d="M17 11.6038H7C5.89543 11.6038 5 12.4992 5 13.6038V19.6038C5 20.7083 5.89543 21.6038 7 21.6038H17C18.1046 21.6038 19 20.7083 19 19.6038V13.6038C19 12.4992 18.1046 11.6038 17 11.6038Z" stroke="#4420CD" stroke-width="1.5" stroke-linecap="round" stroke-linejoin="round"/>
<path d="M12 17.6038C12.5523 17.6038 13 17.156 13 16.6038C13 16.0515 12.5523 15.6038 12 15.6038C11.4477 15.6038 11 16.0515 11 16.6038C11 17.156 11.4477 17.6038 12 17.6038Z" fill="#4420CD" stroke="#4420CD" stroke-width="1.5" stroke-linecap="round" stroke-linejoin="round"/>
<path d="M8 11.6038V7.60376C8 6.54289 8.42143 5.52548 9.17157 4.77533C9.92172 4.02519 10.9391 3.60376 12 3.60376C13.0609 3.60376 14.0783 4.02519 14.8284 4.77533C15.5786 5.52548 16 6.54289 16 7.60376V11.6038" stroke="#4420CD" stroke-width="1.5" stroke-linecap="round" stroke-linejoin="round"/>
</svg>
