<svg width="48" height="48" fill="none" xmlns="http://www.w3.org/2000/svg"><g filter="url(#a)"><path fill-rule="evenodd" clip-rule="evenodd" d="M22.693 26.98 7.553 37.668l.94 1.33L23.52 28.39 39.33 39.01l.908-1.352-15.917-10.691V9.83h-1.63v17.15z" fill="url(#b)"/></g><g filter="url(#c)"><path d="M27.25 6.532a5.7 5.7 0 1 0-8.062 8.062 5.7 5.7 0 0 0 8.062-8.062z" fill="url(#d)" fill-opacity=".71"/><path d="M27.25 6.532a5.7 5.7 0 1 0-8.062 8.062 5.7 5.7 0 0 0 8.062-8.062z" stroke="url(#e)" stroke-width=".254" stroke-linecap="round" stroke-linejoin="round"/><path d="M27.25 6.532a5.7 5.7 0 1 0-8.062 8.062 5.7 5.7 0 0 0 8.062-8.062z" stroke="url(#f)" stroke-width=".254" stroke-linecap="round" stroke-linejoin="round"/></g><g filter="url(#g)"><g clip-path="url(#h)"><rect x="14.815" y="19" width="17.687" height="17.687" rx="8.843" fill="url(#i)" fill-opacity=".58"/><g filter="url(#j)"><path d="M21.117 26.689v-2.523a2.523 2.523 0 0 1 5.046 0v2.523" fill="url(#k)"/><path d="M21.117 26.689v-2.523a2.523 2.523 0 0 1 5.046 0v2.523" stroke="url(#l)" stroke-opacity=".6" stroke-width=".584" stroke-linecap="round" stroke-linejoin="round"/><path d="M21.117 26.689v-2.523a2.523 2.523 0 0 1 5.046 0v2.523" stroke="#000" stroke-opacity=".2" stroke-width=".584" stroke-linecap="round" stroke-linejoin="round"/><path d="M21.117 26.689v-2.523a2.523 2.523 0 0 1 5.046 0v2.523" stroke="url(#m)" stroke-width=".584" stroke-linecap="round" stroke-linejoin="round"/></g><g filter="url(#n)"><path d="M27.423 26.689h-7.568c-.697 0-1.261.564-1.261 1.26v3.785c0 .696.564 1.261 1.261 1.261h7.568c.697 0 1.261-.565 1.261-1.261V27.95c0-.697-.564-1.261-1.26-1.261z" fill="url(#o)"/><path d="M27.423 26.689h-7.568c-.697 0-1.261.564-1.261 1.26v3.785c0 .696.564 1.261 1.261 1.261h7.568c.697 0 1.261-.565 1.261-1.261V27.95c0-.697-.564-1.261-1.26-1.261z" stroke="url(#p)" stroke-opacity=".6" stroke-width=".584" stroke-linecap="round" stroke-linejoin="round"/><path d="M27.423 26.689h-7.568c-.697 0-1.261.564-1.261 1.26v3.785c0 .696.564 1.261 1.261 1.261h7.568c.697 0 1.261-.565 1.261-1.261V27.95c0-.697-.564-1.261-1.26-1.261z" stroke="#000" stroke-opacity=".2" stroke-width=".584" stroke-linecap="round" stroke-linejoin="round"/><path d="M27.423 26.689h-7.568c-.697 0-1.261.564-1.261 1.26v3.785c0 .696.564 1.261 1.261 1.261h7.568c.697 0 1.261-.565 1.261-1.261V27.95c0-.697-.564-1.261-1.26-1.261z" stroke="url(#q)" stroke-width=".584" stroke-linecap="round" stroke-linejoin="round"/></g></g><rect x="14.815" y="19" width="17.687" height="17.687" rx="8.843" stroke="url(#r)" stroke-width=".584" stroke-linecap="round" stroke-linejoin="round"/><rect x="14.815" y="19" width="17.687" height="17.687" rx="8.843" stroke="url(#s)" stroke-width=".584" stroke-linecap="round" stroke-linejoin="round"/></g><g filter="url(#t)"><path d="M42.922 33.408a5.7 5.7 0 1 0-8.062 8.062 5.7 5.7 0 0 0 8.062-8.062z" fill="url(#u)" fill-opacity=".71"/><path d="M42.922 33.408a5.7 5.7 0 1 0-8.062 8.062 5.7 5.7 0 0 0 8.062-8.062z" stroke="url(#v)" stroke-width=".254" stroke-linecap="round" stroke-linejoin="round"/><path d="M42.922 33.408a5.7 5.7 0 1 0-8.062 8.062 5.7 5.7 0 0 0 8.062-8.062z" stroke="url(#w)" stroke-width=".254" stroke-linecap="round" stroke-linejoin="round"/></g><g filter="url(#x)"><path d="M12.785 33.408a5.7 5.7 0 1 0-8.062 8.062 5.7 5.7 0 0 0 8.062-8.062z" fill="url(#y)" fill-opacity=".71"/><path d="M12.785 33.408a5.7 5.7 0 1 0-8.062 8.062 5.7 5.7 0 0 0 8.062-8.062z" stroke="url(#z)" stroke-width=".254" stroke-linecap="round" stroke-linejoin="round"/><path d="M12.785 33.408a5.7 5.7 0 1 0-8.062 8.062 5.7 5.7 0 0 0 8.062-8.062z" stroke="url(#A)" stroke-width=".254" stroke-linecap="round" stroke-linejoin="round"/></g><defs><linearGradient id="b" x1="10.478" y1="15.719" x2="46.776" y2="64.08" gradientUnits="userSpaceOnUse"><stop stop-color="#4420CD"/><stop offset=".603" stop-color="#B5A6EB"/><stop offset="1" stop-color="#fff" stop-opacity="0"/></linearGradient><linearGradient id="d" x1="16.513" y1="11.516" x2="31.064" y2="12.339" gradientUnits="userSpaceOnUse"><stop offset=".118" stop-color="#4420CD"/><stop offset="1" stop-color="#fff" stop-opacity="0"/></linearGradient><linearGradient id="e" x1="32.666" y1="8.398" x2="14.785" y2="12.895" gradientUnits="userSpaceOnUse"><stop offset=".38" stop-color="#fff" stop-opacity=".082"/><stop offset="1" stop-color="#fff"/></linearGradient><linearGradient id="f" x1="30.477" y1="12.053" x2="16.233" y2="10.004" gradientUnits="userSpaceOnUse"><stop stop-color="#4420CD"/><stop offset="1" stop-color="#fff" stop-opacity="0"/></linearGradient><linearGradient id="i" x1="30.768" y1="18.776" x2="17.912" y2="35.675" gradientUnits="userSpaceOnUse"><stop offset=".118" stop-color="#4420CD"/><stop offset="1" stop-color="#fff" stop-opacity="0"/></linearGradient><linearGradient id="k" x1="24.577" y1="23.183" x2="21.648" y2="30.028" gradientUnits="userSpaceOnUse"><stop stop-color="#4420CD"/><stop offset="1" stop-color="#fff" stop-opacity="0"/></linearGradient><linearGradient id="l" x1="21.361" y1="27.799" x2="25.549" y2="20.798" gradientUnits="userSpaceOnUse"><stop offset=".38" stop-color="#fff" stop-opacity=".082"/><stop offset="1" stop-color="#fff"/></linearGradient><linearGradient id="m" x1="20.902" y1="25.971" x2="26" y2="22.155" gradientUnits="userSpaceOnUse"><stop stop-color="#4420CD"/><stop offset="1" stop-color="#fff" stop-opacity="0"/></linearGradient><linearGradient id="o" x1="25.513" y1="28.613" x2="22.987" y2="38.06" gradientUnits="userSpaceOnUse"><stop stop-color="#4420CD"/><stop offset="1" stop-color="#fff" stop-opacity="0"/></linearGradient><linearGradient id="p" x1="19.082" y1="34.383" x2="22.979" y2="23.957" gradientUnits="userSpaceOnUse"><stop offset=".38" stop-color="#fff" stop-opacity=".082"/><stop offset="1" stop-color="#fff"/></linearGradient><linearGradient id="q" x1="18.164" y1="32.098" x2="24.7" y2="24.271" gradientUnits="userSpaceOnUse"><stop stop-color="#4420CD"/><stop offset="1" stop-color="#fff" stop-opacity="0"/></linearGradient><linearGradient id="r" x1="15.67" y1="40.58" x2="30.35" y2="16.035" gradientUnits="userSpaceOnUse"><stop offset=".38" stop-color="#fff" stop-opacity=".082"/><stop offset="1" stop-color="#fff"/></linearGradient><linearGradient id="s" x1="14.062" y1="34.17" x2="31.933" y2="20.794" gradientUnits="userSpaceOnUse"><stop stop-color="#4420CD"/><stop offset="1" stop-color="#fff" stop-opacity="0"/></linearGradient><linearGradient id="u" x1="32.185" y1="38.392" x2="46.736" y2="39.215" gradientUnits="userSpaceOnUse"><stop offset=".118" stop-color="#4420CD"/><stop offset="1" stop-color="#fff" stop-opacity="0"/></linearGradient><linearGradient id="v" x1="48.337" y1="35.274" x2="30.457" y2="39.771" gradientUnits="userSpaceOnUse"><stop offset=".38" stop-color="#fff" stop-opacity=".082"/><stop offset="1" stop-color="#fff"/></linearGradient><linearGradient id="w" x1="46.149" y1="38.929" x2="31.905" y2="36.88" gradientUnits="userSpaceOnUse"><stop stop-color="#4420CD"/><stop offset="1" stop-color="#fff" stop-opacity="0"/></linearGradient><linearGradient id="y" x1="2.048" y1="38.392" x2="16.599" y2="39.215" gradientUnits="userSpaceOnUse"><stop offset=".118" stop-color="#4420CD"/><stop offset="1" stop-color="#fff" stop-opacity="0"/></linearGradient><linearGradient id="z" x1="18.201" y1="35.274" x2=".321" y2="39.771" gradientUnits="userSpaceOnUse"><stop offset=".38" stop-color="#fff" stop-opacity=".082"/><stop offset="1" stop-color="#fff"/></linearGradient><linearGradient id="A" x1="16.012" y1="38.929" x2="1.769" y2="36.88" gradientUnits="userSpaceOnUse"><stop stop-color="#4420CD"/><stop offset="1" stop-color="#fff" stop-opacity="0"/></linearGradient><filter id="a" x="3.603" y="5.879" width="40.587" height="37.082" filterUnits="userSpaceOnUse" color-interpolation-filters="sRGB"><feFlood flood-opacity="0" result="BackgroundImageFix"/><feGaussianBlur in="BackgroundImageFix" stdDeviation="1.975"/><feComposite in2="SourceAlpha" operator="in" result="effect1_backgroundBlur_393_6962"/><feBlend in="SourceGraphic" in2="effect1_backgroundBlur_393_6962" result="shape"/><feColorMatrix in="SourceAlpha" values="0 0 0 0 0 0 0 0 0 0 0 0 0 0 0 0 0 0 127 0" result="hardAlpha"/><feOffset dx="1.975" dy="1.975"/><feGaussianBlur stdDeviation="2.963"/><feComposite in2="hardAlpha" operator="arithmetic" k2="-1" k3="1"/><feColorMatrix values="0 0 0 0 0 0 0 0 0 0 0 0 0 0 0 0 0 0 0.03 0"/><feBlend in2="shape" result="effect2_innerShadow_393_6962"/></filter><filter id="c" x="13.319" y=".663" width="19.8" height="19.8" filterUnits="userSpaceOnUse" color-interpolation-filters="sRGB"><feFlood flood-opacity="0" result="BackgroundImageFix"/><feGaussianBlur in="BackgroundImageFix" stdDeviation="2.036"/><feComposite in2="SourceAlpha" operator="in" result="effect1_backgroundBlur_393_6962"/><feBlend in="SourceGraphic" in2="effect1_backgroundBlur_393_6962" result="shape"/><feColorMatrix in="SourceAlpha" values="0 0 0 0 0 0 0 0 0 0 0 0 0 0 0 0 0 0 127 0" result="hardAlpha"/><feOffset dx="1.426" dy="1.426"/><feGaussianBlur stdDeviation="2.138"/><feComposite in2="hardAlpha" operator="arithmetic" k2="-1" k3="1"/><feColorMatrix values="0 0 0 0 0 0 0 0 0 0 0 0 0 0 0 0 0 0 0.03 0"/><feBlend in2="shape" result="effect2_innerShadow_393_6962"/></filter><filter id="g" x="11.764" y="15.95" width="23.787" height="23.787" filterUnits="userSpaceOnUse" color-interpolation-filters="sRGB"><feFlood flood-opacity="0" result="BackgroundImageFix"/><feGaussianBlur in="BackgroundImageFix" stdDeviation="1.379"/><feComposite in2="SourceAlpha" operator="in" result="effect1_backgroundBlur_393_6962"/><feBlend in="SourceGraphic" in2="effect1_backgroundBlur_393_6962" result="shape"/><feColorMatrix in="SourceAlpha" values="0 0 0 0 0 0 0 0 0 0 0 0 0 0 0 0 0 0 127 0" result="hardAlpha"/><feOffset dx="2.478" dy="2.478"/><feGaussianBlur stdDeviation="3.717"/><feComposite in2="hardAlpha" operator="arithmetic" k2="-1" k3="1"/><feColorMatrix values="0 0 0 0 0 0 0 0 0 0 0 0 0 0 0 0 0 0 0.03 0"/><feBlend in2="shape" result="effect2_innerShadow_393_6962"/></filter><filter id="j" x="15.869" y="16.396" width="15.54" height="15.541" filterUnits="userSpaceOnUse" color-interpolation-filters="sRGB"><feFlood flood-opacity="0" result="BackgroundImageFix"/><feGaussianBlur in="BackgroundImageFix" stdDeviation="2.478"/><feComposite in2="SourceAlpha" operator="in" result="effect1_backgroundBlur_393_6962"/><feBlend in="SourceGraphic" in2="effect1_backgroundBlur_393_6962" result="shape"/><feColorMatrix in="SourceAlpha" values="0 0 0 0 0 0 0 0 0 0 0 0 0 0 0 0 0 0 127 0" result="hardAlpha"/><feOffset dx="2.478" dy="2.478"/><feGaussianBlur stdDeviation="3.717"/><feComposite in2="hardAlpha" operator="arithmetic" k2="-1" k3="1"/><feColorMatrix values="0 0 0 0 0 0 0 0 0 0 0 0 0 0 0 0 0 0 0.03 0"/><feBlend in2="shape" result="effect2_innerShadow_393_6962"/></filter><filter id="n" x="13.346" y="21.441" width="20.586" height="16.802" filterUnits="userSpaceOnUse" color-interpolation-filters="sRGB"><feFlood flood-opacity="0" result="BackgroundImageFix"/><feGaussianBlur in="BackgroundImageFix" stdDeviation="2.478"/><feComposite in2="SourceAlpha" operator="in" result="effect1_backgroundBlur_393_6962"/><feBlend in="SourceGraphic" in2="effect1_backgroundBlur_393_6962" result="shape"/><feColorMatrix in="SourceAlpha" values="0 0 0 0 0 0 0 0 0 0 0 0 0 0 0 0 0 0 127 0" result="hardAlpha"/><feOffset dx="2.478" dy="2.478"/><feGaussianBlur stdDeviation="3.717"/><feComposite in2="hardAlpha" operator="arithmetic" k2="-1" k3="1"/><feColorMatrix values="0 0 0 0 0 0 0 0 0 0 0 0 0 0 0 0 0 0 0.03 0"/><feBlend in2="shape" result="effect2_innerShadow_393_6962"/></filter><filter id="t" x="28.991" y="27.539" width="19.8" height="19.8" filterUnits="userSpaceOnUse" color-interpolation-filters="sRGB"><feFlood flood-opacity="0" result="BackgroundImageFix"/><feGaussianBlur in="BackgroundImageFix" stdDeviation="2.036"/><feComposite in2="SourceAlpha" operator="in" result="effect1_backgroundBlur_393_6962"/><feBlend in="SourceGraphic" in2="effect1_backgroundBlur_393_6962" result="shape"/><feColorMatrix in="SourceAlpha" values="0 0 0 0 0 0 0 0 0 0 0 0 0 0 0 0 0 0 127 0" result="hardAlpha"/><feOffset dx="1.426" dy="1.426"/><feGaussianBlur stdDeviation="2.138"/><feComposite in2="hardAlpha" operator="arithmetic" k2="-1" k3="1"/><feColorMatrix values="0 0 0 0 0 0 0 0 0 0 0 0 0 0 0 0 0 0 0.03 0"/><feBlend in2="shape" result="effect2_innerShadow_393_6962"/></filter><filter id="x" x="-1.146" y="27.539" width="19.8" height="19.8" filterUnits="userSpaceOnUse" color-interpolation-filters="sRGB"><feFlood flood-opacity="0" result="BackgroundImageFix"/><feGaussianBlur in="BackgroundImageFix" stdDeviation="2.036"/><feComposite in2="SourceAlpha" operator="in" result="effect1_backgroundBlur_393_6962"/><feBlend in="SourceGraphic" in2="effect1_backgroundBlur_393_6962" result="shape"/><feColorMatrix in="SourceAlpha" values="0 0 0 0 0 0 0 0 0 0 0 0 0 0 0 0 0 0 127 0" result="hardAlpha"/><feOffset dx="1.426" dy="1.426"/><feGaussianBlur stdDeviation="2.138"/><feComposite in2="hardAlpha" operator="arithmetic" k2="-1" k3="1"/><feColorMatrix values="0 0 0 0 0 0 0 0 0 0 0 0 0 0 0 0 0 0 0.03 0"/><feBlend in2="shape" result="effect2_innerShadow_393_6962"/></filter><clipPath id="h"><rect x="14.815" y="19" width="17.687" height="17.687" rx="8.843" fill="#fff"/></clipPath></defs></svg>