<svg width="48" height="48" fill="none" xmlns="http://www.w3.org/2000/svg"><g filter="url(#a)"><path fill-rule="evenodd" clip-rule="evenodd" d="M24.671 10.474c-.6-1.068-2.141-1.06-2.73.015L7.84 36.213a1.562 1.562 0 0 0 1.37 2.313h28.582c.293 0 .56-.077.786-.21l.115.078.25-.374a1.59 1.59 0 0 0 .26-.387l.36-.536-.207-.14a1.55 1.55 0 0 0-.203-.76L24.671 10.475zm12.164 24.79L24.3 13v13.847l12.535 8.419zM22.74 12.284 9.705 36.06l13.034-9.203V12.283zM11.132 36.964h25.433L23.53 28.21l-12.398 8.754z" fill="url(#b)"/></g><g filter="url(#c)"><path d="M27.108 7.25a5.467 5.467 0 1 0-7.731 7.73 5.467 5.467 0 0 0 7.73-7.73z" fill="url(#d)" fill-opacity=".71"/><path d="M27.108 7.25a5.467 5.467 0 1 0-7.731 7.73 5.467 5.467 0 0 0 7.73-7.73z" stroke="url(#e)" stroke-width=".244" stroke-linecap="round" stroke-linejoin="round"/><path d="M27.108 7.25a5.467 5.467 0 1 0-7.731 7.73 5.467 5.467 0 0 0 7.73-7.73z" stroke="url(#f)" stroke-width=".244" stroke-linecap="round" stroke-linejoin="round"/></g><g filter="url(#g)"><path d="M27.299 22.87a5.467 5.467 0 1 0-7.73 7.732 5.467 5.467 0 0 0 7.73-7.731z" fill="url(#h)" fill-opacity=".71"/><path d="M27.299 22.87a5.467 5.467 0 1 0-7.73 7.732 5.467 5.467 0 0 0 7.73-7.731z" stroke="url(#i)" stroke-width=".244" stroke-linecap="round" stroke-linejoin="round"/><path d="M27.299 22.87a5.467 5.467 0 1 0-7.73 7.732 5.467 5.467 0 0 0 7.73-7.731z" stroke="url(#j)" stroke-width=".244" stroke-linecap="round" stroke-linejoin="round"/></g><g filter="url(#k)"><path d="M42.135 33.021a5.466 5.466 0 1 0-7.73 7.73 5.466 5.466 0 0 0 7.73-7.73z" fill="url(#l)" fill-opacity=".71"/><path d="M42.135 33.021a5.466 5.466 0 1 0-7.73 7.73 5.466 5.466 0 0 0 7.73-7.73z" stroke="url(#m)" stroke-width=".244" stroke-linecap="round" stroke-linejoin="round"/><path d="M42.135 33.021a5.466 5.466 0 1 0-7.73 7.73 5.466 5.466 0 0 0 7.73-7.73z" stroke="url(#n)" stroke-width=".244" stroke-linecap="round" stroke-linejoin="round"/></g><g filter="url(#o)"><path d="M13.236 33.021a5.466 5.466 0 1 0-7.73 7.73 5.466 5.466 0 0 0 7.73-7.73z" fill="url(#p)" fill-opacity=".71"/><path d="M13.236 33.021a5.466 5.466 0 1 0-7.73 7.73 5.466 5.466 0 0 0 7.73-7.73z" stroke="url(#q)" stroke-width=".244" stroke-linecap="round" stroke-linejoin="round"/><path d="M13.236 33.021a5.466 5.466 0 1 0-7.73 7.73 5.466 5.466 0 0 0 7.73-7.73z" stroke="url(#r)" stroke-width=".244" stroke-linecap="round" stroke-linejoin="round"/></g><defs><linearGradient id="b" x1="10.501" y1="15.5" x2="46.508" y2="62.885" gradientUnits="userSpaceOnUse"><stop stop-color="#4420CD"/><stop offset=".603" stop-color="#B5A6EB"/><stop offset="1" stop-color="#fff" stop-opacity="0"/></linearGradient><linearGradient id="d" x1="16.812" y1="12.029" x2="30.765" y2="12.819" gradientUnits="userSpaceOnUse"><stop offset=".118" stop-color="#4420CD"/><stop offset="1" stop-color="#fff" stop-opacity="0"/></linearGradient><linearGradient id="e" x1="32.301" y1="9.039" x2="15.155" y2="13.351" gradientUnits="userSpaceOnUse"><stop offset=".38" stop-color="#fff" stop-opacity=".082"/><stop offset="1" stop-color="#fff"/></linearGradient><linearGradient id="f" x1="30.202" y1="12.544" x2="16.544" y2="10.579" gradientUnits="userSpaceOnUse"><stop stop-color="#4420CD"/><stop offset="1" stop-color="#fff" stop-opacity="0"/></linearGradient><linearGradient id="h" x1="17.003" y1="27.65" x2="30.956" y2="28.44" gradientUnits="userSpaceOnUse"><stop offset=".118" stop-color="#4420CD"/><stop offset="1" stop-color="#fff" stop-opacity="0"/></linearGradient><linearGradient id="i" x1="32.492" y1="24.66" x2="15.347" y2="28.972" gradientUnits="userSpaceOnUse"><stop offset=".38" stop-color="#fff" stop-opacity=".082"/><stop offset="1" stop-color="#fff"/></linearGradient><linearGradient id="j" x1="30.393" y1="28.165" x2="16.735" y2="26.2" gradientUnits="userSpaceOnUse"><stop stop-color="#4420CD"/><stop offset="1" stop-color="#fff" stop-opacity="0"/></linearGradient><linearGradient id="l" x1="31.839" y1="37.8" x2="45.792" y2="38.59" gradientUnits="userSpaceOnUse"><stop offset=".118" stop-color="#4420CD"/><stop offset="1" stop-color="#fff" stop-opacity="0"/></linearGradient><linearGradient id="m" x1="47.328" y1="34.81" x2="30.183" y2="39.123" gradientUnits="userSpaceOnUse"><stop offset=".38" stop-color="#fff" stop-opacity=".082"/><stop offset="1" stop-color="#fff"/></linearGradient><linearGradient id="n" x1="45.229" y1="38.316" x2="31.571" y2="36.351" gradientUnits="userSpaceOnUse"><stop stop-color="#4420CD"/><stop offset="1" stop-color="#fff" stop-opacity="0"/></linearGradient><linearGradient id="p" x1="2.941" y1="37.8" x2="16.893" y2="38.59" gradientUnits="userSpaceOnUse"><stop offset=".118" stop-color="#4420CD"/><stop offset="1" stop-color="#fff" stop-opacity="0"/></linearGradient><linearGradient id="q" x1="18.43" y1="34.81" x2="1.284" y2="39.123" gradientUnits="userSpaceOnUse"><stop offset=".38" stop-color="#fff" stop-opacity=".082"/><stop offset="1" stop-color="#fff"/></linearGradient><linearGradient id="r" x1="16.331" y1="38.316" x2="2.673" y2="36.351" gradientUnits="userSpaceOnUse"><stop stop-color="#4420CD"/><stop offset="1" stop-color="#fff" stop-opacity="0"/></linearGradient><filter id="a" x="3.857" y="5.89" width="39.495" height="36.425" filterUnits="userSpaceOnUse" color-interpolation-filters="sRGB"><feFlood flood-opacity="0" result="BackgroundImageFix"/><feGaussianBlur in="BackgroundImageFix" stdDeviation="1.894"/><feComposite in2="SourceAlpha" operator="in" result="effect1_backgroundBlur_394_4285"/><feBlend in="SourceGraphic" in2="effect1_backgroundBlur_394_4285" result="shape"/><feColorMatrix in="SourceAlpha" values="0 0 0 0 0 0 0 0 0 0 0 0 0 0 0 0 0 0 127 0" result="hardAlpha"/><feOffset dx="1.894" dy="1.894"/><feGaussianBlur stdDeviation="2.841"/><feComposite in2="hardAlpha" operator="arithmetic" k2="-1" k3="1"/><feColorMatrix values="0 0 0 0 0 0 0 0 0 0 0 0 0 0 0 0 0 0 0.03 0"/><feBlend in2="shape" result="effect2_innerShadow_394_4285"/></filter><filter id="c" x="13.75" y="1.622" width="18.985" height="18.986" filterUnits="userSpaceOnUse" color-interpolation-filters="sRGB"><feFlood flood-opacity="0" result="BackgroundImageFix"/><feGaussianBlur in="BackgroundImageFix" stdDeviation="1.952"/><feComposite in2="SourceAlpha" operator="in" result="effect1_backgroundBlur_394_4285"/><feBlend in="SourceGraphic" in2="effect1_backgroundBlur_394_4285" result="shape"/><feColorMatrix in="SourceAlpha" values="0 0 0 0 0 0 0 0 0 0 0 0 0 0 0 0 0 0 127 0" result="hardAlpha"/><feOffset dx="1.367" dy="1.367"/><feGaussianBlur stdDeviation="2.05"/><feComposite in2="hardAlpha" operator="arithmetic" k2="-1" k3="1"/><feColorMatrix values="0 0 0 0 0 0 0 0 0 0 0 0 0 0 0 0 0 0 0.03 0"/><feBlend in2="shape" result="effect2_innerShadow_394_4285"/></filter><filter id="g" x="13.941" y="17.243" width="18.985" height="18.986" filterUnits="userSpaceOnUse" color-interpolation-filters="sRGB"><feFlood flood-opacity="0" result="BackgroundImageFix"/><feGaussianBlur in="BackgroundImageFix" stdDeviation="1.952"/><feComposite in2="SourceAlpha" operator="in" result="effect1_backgroundBlur_394_4285"/><feBlend in="SourceGraphic" in2="effect1_backgroundBlur_394_4285" result="shape"/><feColorMatrix in="SourceAlpha" values="0 0 0 0 0 0 0 0 0 0 0 0 0 0 0 0 0 0 127 0" result="hardAlpha"/><feOffset dx="1.367" dy="1.367"/><feGaussianBlur stdDeviation="2.05"/><feComposite in2="hardAlpha" operator="arithmetic" k2="-1" k3="1"/><feColorMatrix values="0 0 0 0 0 0 0 0 0 0 0 0 0 0 0 0 0 0 0.03 0"/><feBlend in2="shape" result="effect2_innerShadow_394_4285"/></filter><filter id="k" x="28.777" y="27.393" width="18.985" height="18.986" filterUnits="userSpaceOnUse" color-interpolation-filters="sRGB"><feFlood flood-opacity="0" result="BackgroundImageFix"/><feGaussianBlur in="BackgroundImageFix" stdDeviation="1.952"/><feComposite in2="SourceAlpha" operator="in" result="effect1_backgroundBlur_394_4285"/><feBlend in="SourceGraphic" in2="effect1_backgroundBlur_394_4285" result="shape"/><feColorMatrix in="SourceAlpha" values="0 0 0 0 0 0 0 0 0 0 0 0 0 0 0 0 0 0 127 0" result="hardAlpha"/><feOffset dx="1.367" dy="1.367"/><feGaussianBlur stdDeviation="2.05"/><feComposite in2="hardAlpha" operator="arithmetic" k2="-1" k3="1"/><feColorMatrix values="0 0 0 0 0 0 0 0 0 0 0 0 0 0 0 0 0 0 0.03 0"/><feBlend in2="shape" result="effect2_innerShadow_394_4285"/></filter><filter id="o" x="-.121" y="27.393" width="18.985" height="18.986" filterUnits="userSpaceOnUse" color-interpolation-filters="sRGB"><feFlood flood-opacity="0" result="BackgroundImageFix"/><feGaussianBlur in="BackgroundImageFix" stdDeviation="1.952"/><feComposite in2="SourceAlpha" operator="in" result="effect1_backgroundBlur_394_4285"/><feBlend in="SourceGraphic" in2="effect1_backgroundBlur_394_4285" result="shape"/><feColorMatrix in="SourceAlpha" values="0 0 0 0 0 0 0 0 0 0 0 0 0 0 0 0 0 0 127 0" result="hardAlpha"/><feOffset dx="1.367" dy="1.367"/><feGaussianBlur stdDeviation="2.05"/><feComposite in2="hardAlpha" operator="arithmetic" k2="-1" k3="1"/><feColorMatrix values="0 0 0 0 0 0 0 0 0 0 0 0 0 0 0 0 0 0 0.03 0"/><feBlend in2="shape" result="effect2_innerShadow_394_4285"/></filter></defs></svg>