<?xml version="1.0" standalone="no"?>
<!DOCTYPE svg PUBLIC "-//W3C//DTD SVG 20010904//EN"
 "http://www.w3.org/TR/2001/REC-SVG-20010904/DTD/svg10.dtd">
<svg version="1.0" xmlns="http://www.w3.org/2000/svg"
 width="1536.000000pt" height="1536.000000pt" viewBox="0 0 1536.000000 1536.000000"
 preserveAspectRatio="xMidYMid meet">

<g transform="translate(0.000000,1536.000000) scale(0.100000,-0.100000)"
fill="#000000" stroke="none">
<path d="M7734 9059 c15 -12 26 -30 26 -45 0 -28 2 -28 -44 -9 -27 12 -46 13
-71 6 -32 -9 -329 -175 -595 -333 -41 -25 -95 -56 -120 -70 -25 -14 -72 -40
-105 -58 -33 -19 -62 -36 -65 -40 -3 -3 -34 -23 -70 -45 -36 -21 -69 -43 -75
-47 -5 -5 -29 -22 -53 -39 -23 -17 -40 -34 -38 -38 3 -4 -4 -12 -14 -18 -15
-10 -19 -8 -24 10 -11 41 -6 61 22 91 l27 30 -35 -22 c-71 -43 -70 -33 -70
-548 l0 -461 23 -33 c55 -81 131 -96 233 -44 103 51 98 33 104 432 6 439 -5
407 195 524 61 35 191 111 290 168 515 295 518 298 535 359 14 52 12 136 -4
176 -8 19 -30 44 -48 55 -43 26 -58 26 -24 -1z m-1156 -759 c32 0 71 4 87 9
27 7 30 6 30 -15 0 -13 -3 -24 -7 -24 -8 0 -4 -190 12 -544 10 -243 7 -282
-31 -329 -11 -15 -38 -31 -60 -37 -33 -9 -46 -8 -76 7 -20 10 -46 31 -57 46
-20 27 -21 40 -18 225 2 199 17 506 26 552 14 68 17 86 21 100 2 8 4 20 5 25
1 6 4 4 7 -2 3 -8 25 -13 61 -13z"/>
<path d="M7917 8820 c-30 -35 -52 -127 -43 -176 10 -49 48 -88 134 -137 187
-106 445 -258 473 -277 16 -12 39 -40 52 -63 23 -44 24 -103 27 -1080 0 -54 3
-61 42 -103 54 -58 104 -84 165 -84 60 0 104 26 126 73 15 32 17 100 17 709 0
653 -1 674 -20 706 -11 17 -25 32 -31 32 -8 0 -8 -4 1 -15 9 -11 9 -42 0 -142
-11 -133 -27 -277 -33 -303 -7 -30 -36 -90 -44 -90 -5 0 -15 -20 -22 -45 -7
-25 -17 -42 -22 -39 -5 3 -9 1 -9 -4 0 -5 -9 -19 -20 -32 l-20 -23 0 41 c0 23
-4 63 -10 89 -5 26 -11 104 -13 173 -8 237 -18 249 -377 437 -328 173 -338
179 -361 216 -25 43 -25 107 2 141 28 36 17 33 -14 -4z"/>
<path d="M7761 8545 c0 -5 6 -19 14 -29 21 -28 18 -68 -7 -107 -19 -28 -75
-60 -340 -194 -174 -88 -323 -166 -331 -173 -12 -10 -17 -5 -31 33 -20 50 -25
52 -87 30 -34 -12 -44 -13 -51 -3 -13 22 -9 41 15 66 20 22 20 24 2 14 -11 -5
-31 -22 -45 -37 l-25 -27 -3 -236 c-2 -215 -1 -240 16 -272 35 -66 134 -90
211 -51 67 35 75 57 81 223 7 202 -12 181 350 388 209 119 249 147 261 178 27
70 23 139 -11 182 -11 14 -20 21 -19 15z"/>
<path d="M7905 8347 c-38 -38 -59 -104 -50 -150 10 -45 46 -80 140 -132 116
-65 153 -106 165 -181 6 -32 10 -180 10 -327 0 -295 0 -295 64 -356 31 -30 44
-35 96 -39 59 -4 61 -4 99 35 38 38 39 40 45 133 3 52 5 246 3 430 -2 327 -3
336 -24 371 -12 19 -35 41 -50 48 l-28 13 23 -24 c23 -26 29 -53 12 -63 -6 -4
-41 14 -78 38 -121 80 -284 167 -316 169 -17 1 -43 -2 -58 -6 -39 -11 -48 17
-18 50 36 37 3 29 -35 -9z m480 -365 c30 -20 47 -165 61 -498 7 -189 1 -229
-43 -264 -40 -31 -102 -27 -136 8 -43 45 -47 74 -37 305 12 261 24 378 45 445
5 13 92 17 110 4z"/>
<path d="M8050 8376 c0 -2 7 -7 16 -10 8 -3 12 -2 9 4 -6 10 -25 14 -25 6z"/>
<path d="M7864 7863 c80 -95 49 -279 -59 -353 -60 -41 -151 -52 -219 -26 -50
19 -110 80 -134 135 -21 51 -21 157 1 201 l18 35 -25 -28 c-51 -56 -62 -178
-22 -262 78 -169 308 -212 438 -83 49 50 71 103 76 181 5 79 -22 159 -66 198
-24 21 -25 22 -8 2z"/>
<path d="M6993 7439 c-18 -5 -33 -11 -33 -13 0 -1 19 -3 43 -3 49 0 48 1 375
-188 294 -170 295 -170 497 -56 68 38 100 51 131 51 46 0 74 -22 74 -59 0 -21
-3 -22 -45 -15 -41 6 -52 2 -113 -34 -180 -107 -220 -140 -238 -194 -4 -10
-10 -18 -15 -18 -5 0 -9 -7 -9 -16 0 -21 -31 -14 -140 33 -77 34 -428 209
-540 269 -91 50 -114 125 -57 191 29 33 29 35 5 18 -61 -45 -76 -125 -35 -185
29 -44 708 -439 767 -447 32 -5 51 2 112 35 157 85 304 174 330 199 69 66 35
198 -63 249 -47 24 -77 16 -200 -52 -172 -96 -165 -97 -474 81 -132 76 -251
144 -265 152 -28 15 -60 15 -107 2z"/>
<path d="M6539 7193 c-53 -28 -77 -47 -91 -73 -25 -48 -23 -109 5 -151 26 -38
41 -48 413 -262 148 -85 352 -203 454 -262 299 -174 308 -178 355 -178 44 0
119 41 671 364 190 112 199 121 199 204 0 74 -14 99 -91 157 -86 66 -93 64
-419 -122 -154 -88 -298 -165 -319 -171 -22 -6 -55 -8 -75 -4 -40 7 -32 3
-416 225 -498 288 -538 310 -578 310 -22 0 -63 -14 -108 -37z m551 -275 c261
-149 497 -278 524 -286 70 -21 126 -5 260 72 505 291 476 276 529 276 44 0 54
-4 88 -39 29 -29 39 -47 39 -70 0 -38 -19 -78 -52 -107 -48 -45 -687 -368
-748 -380 -59 -11 -64 -10 -75 14 -5 12 -13 22 -17 22 -5 0 -8 9 -8 20 0 11
-3 20 -8 20 -4 0 -18 19 -31 43 -16 30 -38 51 -70 67 -25 14 -48 27 -51 31
-32 41 -774 488 -858 517 -25 9 -41 8 -73 -3 -52 -19 -49 -19 -49 9 0 15 11
33 26 45 56 44 64 41 574 -251z"/>
</g>
</svg>
