<?xml version="1.0" standalone="no"?>
<!DOCTYPE svg PUBLIC "-//W3C//DTD SVG 20010904//EN"
 "http://www.w3.org/TR/2001/REC-SVG-20010904/DTD/svg10.dtd">
<svg version="1.0" xmlns="http://www.w3.org/2000/svg"
 width="1536.000000pt" height="1536.000000pt" viewBox="0 0 1536.000000 1536.000000"
 preserveAspectRatio="xMidYMid meet">

<g transform="translate(0.000000,1536.000000) scale(0.100000,-0.100000)"
fill="#000000" stroke="none">
<path d="M7529 8840 c40 -6 71 -29 71 -53 0 -5 -18 -6 -39 -2 -27 4 -49 2 -71
-10 -29 -15 -459 -345 -665 -511 -86 -69 -195 -175 -195 -189 0 -3 5 -3 10 0
6 3 10 1 10 -5 0 -6 10 -8 23 -6 12 3 43 8 70 11 l47 6 0 -46 c0 -25 7 -78 15
-118 36 -178 85 -474 85 -518 0 -123 -149 -157 -195 -44 -18 42 -56 401 -60
570 -2 72 -8 143 -14 158 -19 48 -13 69 32 110 29 28 33 34 12 20 -48 -33 -85
-74 -92 -102 -9 -38 86 -737 108 -789 19 -45 62 -72 115 -72 37 0 111 39 140
73 32 38 31 77 -6 347 -34 246 -36 289 -14 335 16 35 22 39 447 369 156 121
273 219 282 236 19 37 19 120 1 165 -19 45 -69 75 -121 74 l-40 -2 44 -7z"/>
<path d="M7445 8814 l-30 -26 33 22 c17 12 32 23 32 26 0 7 -4 5 -35 -22z"/>
<path d="M7379 8763 c-13 -16 -12 -17 4 -4 16 13 21 21 13 21 -2 0 -10 -8 -17
-17z"/>
<path d="M7315 8714 l-40 -36 43 32 c36 27 49 40 40 40 -2 0 -21 -16 -43 -36z"/>
<path d="M7755 8668 c-38 -55 -42 -144 -9 -195 19 -30 41 -41 308 -150 231
-93 274 -118 295 -172 6 -14 38 -221 70 -460 66 -485 61 -466 152 -514 84 -45
164 -25 195 48 13 31 7 81 -61 582 -42 301 -80 560 -86 575 -6 15 -22 34 -36
43 -24 16 -24 16 -10 -7 15 -22 34 -287 28 -363 -4 -46 -45 -159 -67 -187
l-20 -26 -22 87 c-12 47 -29 125 -37 173 -18 107 -44 160 -93 192 -20 14 -149
66 -287 116 -137 50 -261 99 -275 108 -14 10 -34 36 -44 57 -19 38 -19 39 1
77 24 42 23 50 -2 16z"/>
<path d="M7220 8639 l-35 -30 38 26 c33 24 43 35 34 35 -1 0 -18 -14 -37 -31z"/>
<path d="M7159 8593 c-13 -16 -12 -17 4 -4 9 7 17 15 17 17 0 8 -8 3 -21 -13z"/>
<path d="M7109 8553 c-13 -16 -12 -17 4 -4 9 7 17 15 17 17 0 8 -8 3 -21 -13z"/>
<path d="M7069 8523 c-13 -16 -12 -17 4 -4 9 7 17 15 17 17 0 8 -8 3 -21 -13z"/>
<path d="M7029 8493 c-13 -16 -12 -17 4 -4 9 7 17 15 17 17 0 8 -8 3 -21 -13z"/>
<path d="M6965 8444 c-30 -27 -32 -31 -9 -16 28 19 62 53 53 52 -2 -1 -22 -17
-44 -36z"/>
<path d="M7590 8421 c49 -10 78 -27 85 -52 11 -34 -4 -84 -33 -111 -30 -27
-170 -125 -332 -232 -58 -38 -117 -80 -132 -93 l-26 -25 -29 31 -28 32 -38
-16 c-21 -8 -42 -13 -47 -10 -13 8 -13 42 0 50 6 3 10 11 10 17 0 18 -37 -21
-50 -52 -10 -23 -8 -59 10 -187 33 -241 43 -267 113 -283 49 -11 97 3 136 39
27 25 31 36 31 80 0 27 -5 84 -11 124 -18 122 -10 134 225 316 107 84 203 162
211 174 20 29 20 121 -1 153 -21 31 -65 54 -101 53 -25 -1 -25 -2 7 -8z"/>
<path d="M6848 8354 c-32 -25 -58 -48 -58 -50 0 -3 27 16 60 42 53 41 67 54
58 54 -2 0 -29 -21 -60 -46z"/>
<path d="M7819 8287 c-36 -24 -57 -70 -58 -124 -1 -48 38 -87 127 -123 101
-42 140 -66 156 -99 8 -15 28 -130 46 -256 38 -281 37 -274 69 -308 62 -68
134 -76 187 -23 29 29 34 41 34 82 0 86 -81 647 -98 684 -12 25 -32 42 -72 62
-30 15 -59 27 -65 27 -5 0 6 -8 26 -18 50 -23 69 -40 69 -62 0 -24 -5 -24 -65
6 -58 28 -218 94 -256 105 -15 4 -41 2 -62 -5 -39 -13 -47 -11 -47 15 0 24 24
42 68 51 36 7 36 7 6 8 -17 0 -46 -9 -65 -22z m417 -285 c19 -13 42 -96 78
-279 50 -255 53 -284 30 -321 -40 -69 -122 -64 -159 8 -27 51 -62 555 -41 588
8 13 75 16 92 4z"/>
<path d="M6745 8274 c-18 -16 -22 -22 -9 -15 18 9 53 42 43 41 -2 -1 -17 -12
-34 -26z"/>
<path d="M7930 8290 c8 -5 20 -10 25 -10 6 0 3 5 -5 10 -8 5 -19 10 -25 10 -5
0 -3 -5 5 -10z"/>
<path d="M7980 8270 c8 -5 20 -10 25 -10 6 0 3 5 -5 10 -8 5 -19 10 -25 10 -5
0 -3 -5 5 -10z"/>
<path d="M8079 8229 c24 -11 46 -18 48 -15 4 4 -73 36 -85 35 -4 0 13 -9 37
-20z"/>
<path d="M7049 8043 c-13 -16 -12 -17 4 -4 16 13 21 21 13 21 -2 0 -10 -8 -17
-17z"/>
<path d="M7658 7903 c7 -3 16 -2 19 1 4 3 -2 6 -13 5 -11 0 -14 -3 -6 -6z"/>
<path d="M7508 7833 c-88 -94 -85 -226 7 -318 139 -140 385 -39 385 159 0 58
-34 140 -71 171 l-23 20 17 -25 c50 -73 57 -167 17 -237 -50 -89 -163 -128
-246 -85 -78 40 -124 113 -124 197 0 52 10 77 48 118 14 15 23 27 21 27 -3 0
-17 -12 -31 -27z"/>
<path d="M7153 7407 c-47 -18 -46 -22 2 -19 36 3 82 -12 281 -94 308 -127 305
-127 454 -14 41 31 88 60 104 64 35 9 76 -16 76 -45 0 -17 -4 -20 -27 -15 -36
8 -73 -13 -154 -86 -35 -32 -71 -63 -80 -70 -9 -7 -22 -29 -30 -48 -21 -55
-34 -63 -87 -56 -57 8 -512 160 -564 189 -48 26 -72 74 -58 114 10 27 9 27 -6
8 -22 -29 -13 -101 17 -131 26 -24 620 -272 673 -280 38 -6 58 7 228 139 135
105 155 132 145 194 -12 71 -105 135 -163 113 -14 -6 -60 -37 -104 -71 -119
-93 -122 -93 -400 19 -124 50 -236 93 -250 96 -14 3 -39 0 -57 -7z"/>
<path d="M8274 7203 c-17 -10 -115 -83 -218 -163 -102 -80 -201 -153 -218
-162 -63 -34 -95 -26 -434 113 -444 182 -490 199 -522 199 -40 0 -138 -66
-157 -106 -19 -41 -19 -68 0 -108 21 -43 48 -57 340 -176 138 -56 360 -146
494 -202 203 -83 249 -99 277 -93 19 3 67 31 108 63 353 271 458 354 503 398
46 44 53 55 53 90 0 52 -30 98 -87 134 -53 34 -95 38 -139 13z m171 -47 c55
-55 36 -124 -55 -192 -95 -71 -368 -261 -445 -309 -78 -49 -145 -69 -145 -43
0 7 -18 33 -40 57 -22 23 -40 47 -40 52 0 5 -3 8 -7 7 -5 -1 -62 24 -128 56
-169 82 -374 172 -558 245 -159 64 -163 65 -252 49 -27 -4 -22 31 8 54 35 28
68 22 215 -38 547 -224 729 -294 768 -294 60 0 109 30 314 191 256 200 238
188 293 189 38 0 53 -5 72 -24z"/>
</g>
</svg>
