<?xml version="1.0" standalone="no"?>
<!DOCTYPE svg PUBLIC "-//W3C//DTD SVG 20010904//EN"
 "http://www.w3.org/TR/2001/REC-SVG-20010904/DTD/svg10.dtd">
<svg version="1.0" xmlns="http://www.w3.org/2000/svg"
 width="1536.000000pt" height="1536.000000pt" viewBox="0 0 1536.000000 1536.000000"
 preserveAspectRatio="xMidYMid meet">

<g transform="translate(0.000000,1536.000000) scale(0.100000,-0.100000)"
fill="#000000" stroke="none">
<path d="M7773 9909 c29 -24 37 -37 37 -64 0 -19 -5 -37 -11 -40 -5 -4 -33 3
-60 14 -39 17 -60 20 -99 15 -28 -4 -53 -11 -56 -15 -3 -5 -12 -9 -19 -9 -8 0
-56 -25 -107 -56 -50 -31 -101 -60 -113 -65 -11 -6 -45 -25 -75 -44 -30 -19
-72 -42 -92 -52 -21 -10 -38 -21 -38 -25 0 -5 -4 -8 -9 -8 -6 0 -38 -17 -73
-37 -67 -39 -104 -60 -190 -107 -29 -15 -60 -34 -68 -41 -8 -7 -31 -22 -50
-32 -34 -19 -83 -46 -165 -93 -22 -12 -45 -26 -52 -32 -6 -5 -35 -21 -65 -37
-57 -30 -91 -49 -182 -105 -33 -19 -68 -38 -78 -42 -10 -3 -18 -10 -18 -15 0
-5 -5 -9 -10 -9 -6 0 -23 -8 -38 -18 -15 -10 -55 -37 -89 -60 -34 -23 -67 -42
-73 -42 -6 0 -8 -5 -5 -10 6 -10 -42 -35 -59 -31 -5 1 -6 -7 -3 -19 3 -11 1
-18 -4 -15 -11 8 -59 -18 -83 -44 -20 -22 -9 -30 13 -8 11 9 11 7 0 -10 -8
-13 -18 -22 -24 -22 -24 3 -36 -2 -30 -11 3 -5 1 -10 -4 -10 -6 0 -11 -4 -11
-10 0 -18 17 -10 28 13 11 22 11 22 11 -4 l1 -25 98 2 c147 5 172 8 172 22 0
6 5 12 11 12 7 0 8 -7 4 -17 -12 -31 -13 -48 -1 -55 7 -5 4 -8 -6 -8 -20 0
-25 -30 -5 -30 9 0 9 -2 0 -8 -18 -12 -22 -151 -9 -347 12 -191 33 -725 32
-835 -1 -82 -5 -102 -27 -145 -87 -167 -287 -159 -366 13 -20 43 -21 235 -3
632 5 124 13 290 16 370 3 80 9 159 14 175 10 37 24 127 21 139 -1 4 7 24 18
42 l21 35 -22 -12 c-18 -10 -20 -9 -15 5 3 8 2 18 -4 22 -5 3 -9 13 -8 22 1
10 -1 34 -6 55 -9 47 7 89 49 122 45 35 14 31 -36 -5 -46 -34 -81 -81 -92
-123 -4 -16 -6 -357 -6 -759 0 -713 1 -732 21 -777 43 -97 106 -135 224 -136
71 0 88 4 150 34 96 46 130 75 157 129 23 47 23 49 28 587 l5 540 29 62 c49
106 52 109 621 436 149 85 369 212 490 282 121 70 260 151 310 179 111 63 176
125 194 186 20 67 26 190 12 248 -14 55 -65 123 -112 147 -47 25 -56 17 -16
-16z"/>
<path d="M8071 9532 c-68 -71 -101 -239 -64 -323 25 -57 76 -115 122 -140 20
-10 54 -30 76 -43 45 -28 34 -21 445 -260 335 -195 385 -234 423 -326 l22 -55
5 -870 5 -870 27 -46 c42 -71 158 -159 238 -180 110 -29 218 17 272 116 l28
50 0 1079 c0 816 -3 1089 -12 1119 -7 22 -27 56 -46 74 -38 39 -52 38 -26 -1
21 -34 29 -98 15 -125 -7 -11 -18 -130 -26 -263 -9 -134 -20 -263 -26 -288 -6
-25 -10 -53 -10 -62 0 -9 -7 -22 -15 -29 -8 -6 -14 -20 -14 -30 0 -11 -4 -19
-10 -19 -5 0 -11 -19 -11 -42 -1 -24 -3 -35 -6 -25 -3 11 -10 16 -20 13 -8 -3
-17 -6 -19 -6 -2 0 -1 -12 2 -27 5 -19 2 -30 -11 -39 -9 -7 -18 -25 -19 -40
-1 -19 -10 -33 -28 -43 -20 -12 -26 -22 -24 -41 2 -14 1 -17 -1 -7 -8 30 -21
19 -28 -23 -4 -22 -12 -43 -17 -46 -6 -4 -8 -2 -5 3 4 6 -2 80 -13 164 -12 85
-23 240 -25 344 -7 255 -13 289 -74 381 -57 88 -117 127 -496 324 -77 40 -196
103 -265 140 -69 37 -159 85 -200 106 -143 74 -204 163 -190 275 5 38 15 58
40 84 19 19 30 35 25 35 -4 0 -24 -17 -44 -38z"/>
<path d="M7770 9099 c80 -46 104 -142 58 -228 -34 -65 -65 -84 -373 -239 -457
-229 -526 -262 -540 -262 -8 0 -15 -4 -15 -8 0 -4 -16 -14 -35 -21 -19 -7 -35
-17 -35 -22 0 -5 -7 -9 -15 -9 -8 0 -15 -7 -15 -16 0 -11 -5 -14 -16 -10 -11
4 -22 -1 -31 -14 -8 -11 -18 -18 -23 -15 -4 3 -10 -1 -13 -7 -2 -7 -7 5 -11
27 -4 21 -18 49 -31 61 -13 12 -22 24 -19 27 2 2 -2 9 -10 16 -10 8 -21 9 -41
1 -15 -6 -30 -8 -35 -5 -5 3 -11 1 -15 -5 -3 -5 -15 -10 -26 -10 -11 0 -18 -4
-15 -8 3 -5 -8 -6 -24 -4 -17 2 -27 8 -24 13 3 5 0 9 -5 9 -21 0 -7 55 22 93
l29 39 -28 -15 c-39 -20 -90 -75 -105 -112 -14 -33 -20 -466 -9 -662 6 -101 9
-116 36 -160 44 -72 98 -98 199 -98 64 0 89 5 125 23 58 31 87 58 113 107 20
36 22 60 27 255 l5 215 30 54 c38 69 81 103 256 205 79 45 225 130 324 188 99
57 207 120 239 138 89 50 130 95 150 162 23 80 21 154 -6 208 -22 43 -96 110
-121 110 -7 0 4 -10 23 -21z"/>
<path d="M8102 8803 c-76 -42 -128 -121 -139 -213 -14 -121 27 -174 219 -282
149 -83 226 -148 260 -216 23 -47 23 -50 28 -552 6 -572 -1 -527 93 -623 93
-95 204 -111 304 -44 31 21 56 49 73 82 l25 49 3 619 c2 368 -1 647 -7 689
-13 94 -47 141 -132 186 -35 19 -57 27 -50 18 7 -9 17 -16 22 -16 5 0 23 -15
39 -32 24 -27 29 -42 30 -80 l0 -46 -28 13 c-15 8 -36 22 -47 32 -12 10 -36
27 -55 37 -19 10 -44 26 -55 36 -18 15 -76 50 -150 91 -16 9 -64 35 -105 59
-178 102 -202 109 -288 84 -59 -17 -72 -12 -72 31 1 21 42 75 59 75 5 0 13 5
16 10 9 15 -6 12 -43 -7z m728 -643 c11 -11 20 -31 20 -45 0 -14 5 -25 11 -25
5 0 8 -4 5 -9 -3 -4 -1 -23 4 -41 17 -60 50 -623 50 -868 1 -122 -8 -159 -46
-205 -36 -44 -81 -66 -132 -67 -73 0 -125 36 -162 115 -23 47 -25 137 -10 450
19 401 24 477 35 530 10 42 17 81 21 110 13 80 6 75 99 75 72 0 88 -3 105 -20z"/>
<path d="M8280 8806 c0 -2 9 -6 20 -9 11 -3 18 -1 14 4 -5 9 -34 13 -34 5z"/>
<path d="M8510 8676 c0 -3 9 -10 20 -16 11 -6 20 -8 20 -6 0 3 -9 10 -20 16
-11 6 -20 8 -20 6z"/>
<path d="M8676 8575 c10 -8 23 -15 28 -15 6 0 1 7 -10 15 -10 8 -23 15 -28 15
-6 0 -1 -7 10 -15z"/>
<path d="M8008 7925 c36 -69 37 -72 37 -180 0 -102 -2 -115 -31 -176 -65 -136
-160 -210 -294 -229 -248 -35 -455 169 -437 431 5 76 30 152 65 194 9 11 0 4
-21 -15 -77 -71 -119 -215 -99 -335 42 -253 278 -422 521 -371 100 21 156 51
226 121 73 72 111 148 125 246 10 71 0 181 -20 217 -5 9 -16 34 -25 54 -9 20
-32 54 -50 75 l-34 38 37 -70z"/>
<path d="M9385 7850 c-3 -5 -1 -10 4 -10 6 0 11 5 11 10 0 6 -2 10 -4 10 -3 0
-8 -4 -11 -10z"/>
<path d="M6552 7279 c-29 -12 -51 -23 -49 -25 2 -3 16 0 31 6 15 5 43 10 62
10 61 0 122 -32 639 -334 266 -156 330 -187 403 -193 84 -8 147 14 320 111 83
46 165 89 183 95 93 32 189 -13 189 -89 0 -20 -3 -39 -6 -43 -4 -3 -24 1 -46
10 -25 10 -54 14 -81 10 -41 -6 -107 -33 -117 -48 -6 -8 -98 -72 -120 -83 -31
-14 -94 -58 -77 -52 39 12 6 -10 -41 -28 -28 -11 -49 -24 -46 -28 3 -4 -4 -8
-15 -8 -12 0 -21 -7 -21 -15 0 -8 -4 -15 -10 -15 -5 0 -10 -7 -10 -15 0 -9
-11 -28 -25 -43 -14 -15 -25 -35 -25 -44 0 -10 -7 -18 -15 -18 -8 0 -15 -9
-15 -20 0 -11 -5 -20 -11 -20 -5 0 -8 -4 -4 -9 3 -6 -7 -6 -27 0 -18 5 -46 12
-63 15 -16 3 -31 9 -33 15 -2 5 -11 9 -20 9 -24 0 -145 58 -582 278 -384 194
-429 219 -463 257 -29 33 -57 97 -57 135 0 40 29 94 69 127 14 12 23 22 19 23
-14 0 -89 -73 -104 -101 -21 -41 -18 -142 5 -187 32 -62 76 -94 351 -252 146
-84 384 -223 530 -308 314 -184 330 -191 396 -192 63 0 102 19 436 214 151 88
250 152 272 176 63 70 69 189 15 277 -32 52 -107 111 -163 129 -71 22 -100 13
-285 -95 -265 -155 -285 -153 -641 54 -250 145 -409 235 -414 235 -3 0 -29 15
-58 33 -112 71 -181 82 -276 46z"/>
<path d="M5920 6936 c-19 -7 -70 -33 -114 -57 -108 -61 -139 -106 -144 -210
-3 -61 0 -83 16 -115 38 -74 72 -97 452 -314 253 -144 616 -353 885 -510 44
-26 130 -75 190 -110 61 -35 153 -89 205 -120 144 -86 178 -102 241 -107 51
-5 66 -2 131 29 40 19 163 88 273 153 110 65 288 168 395 230 585 335 607 351
630 443 13 57 6 140 -16 183 -7 14 -37 49 -66 77 -115 111 -202 142 -295 107
-27 -10 -120 -59 -208 -110 -88 -51 -182 -105 -210 -120 -27 -15 -143 -81
-257 -147 -261 -149 -265 -151 -363 -152 -91 -1 -110 7 -325 134 -119 70 -661
383 -1040 601 -209 120 -217 123 -280 126 -37 1 -80 -3 -100 -11z m94 -79 c33
-19 86 -49 116 -67 30 -18 93 -54 140 -80 100 -56 125 -70 245 -140 50 -29
115 -66 145 -83 109 -61 129 -72 187 -106 32 -19 78 -45 103 -59 25 -14 77
-43 115 -65 285 -163 443 -249 482 -262 139 -47 212 -29 446 108 307 181 678
393 731 418 112 53 211 36 289 -50 33 -37 37 -47 37 -97 0 -66 -27 -128 -74
-172 -35 -33 -58 -45 -506 -280 -446 -232 -657 -332 -718 -339 -26 -2 -48 -9
-50 -14 -5 -12 -39 -11 -47 1 -4 6 -10 8 -15 5 -5 -3 -11 -1 -15 5 -3 5 -2 10
3 10 5 0 7 11 4 25 -3 17 -11 25 -24 25 -17 0 -20 5 -15 29 5 24 2 31 -13 36
-11 4 -20 11 -20 16 0 5 -7 21 -17 35 -12 19 -18 22 -25 12 -7 -9 -8 -3 -4 18
4 25 1 33 -17 42 -20 10 -20 11 -3 11 11 1 -16 19 -60 40 -43 21 -88 46 -99
56 -11 9 -14 13 -6 9 9 -4 12 -3 7 4 -4 6 -12 9 -19 7 -7 -3 -25 4 -42 15 -16
11 -25 20 -19 20 5 0 14 -3 20 -7 5 -5 3 -2 -6 5 -21 18 -181 122 -187 122 -7
0 -78 54 -81 63 -2 4 -10 7 -18 7 -14 0 -24 7 -59 38 -7 6 -17 12 -21 12 -4 0
-22 11 -40 25 -18 14 -39 25 -47 25 -8 0 -20 7 -27 15 -7 8 -18 15 -25 15 -8
0 -15 4 -17 9 -1 4 -46 33 -98 64 -52 31 -99 60 -105 64 -5 4 -35 21 -65 36
-30 15 -71 38 -91 50 -20 12 -99 57 -175 101 -77 43 -151 87 -166 97 -15 11
-33 19 -41 19 -7 0 -17 4 -22 8 -6 4 -26 13 -46 20 -35 12 -79 3 -161 -32 -27
-12 -35 37 -12 72 25 38 35 47 69 60 58 21 113 14 179 -21z"/>
</g>
</svg>
