<?xml version="1.0" standalone="no"?>
<!DOCTYPE svg PUBLIC "-//W3C//DTD SVG 20010904//EN"
 "http://www.w3.org/TR/2001/REC-SVG-20010904/DTD/svg10.dtd">
<svg version="1.0" xmlns="http://www.w3.org/2000/svg"
 width="1536.000000pt" height="1536.000000pt" viewBox="0 0 1536.000000 1536.000000"
 preserveAspectRatio="xMidYMid meet">

<g transform="translate(0.000000,1536.000000) scale(0.100000,-0.100000)"
fill="#000000" stroke="none">
<path d="M7920 8828 c46 -13 70 -35 70 -65 0 -27 -9 -29 -36 -8 -10 8 -36 15
-58 15 -22 0 -208 -53 -440 -126 -405 -127 -554 -179 -600 -210 -26 -16 -26
-16 -26 14 0 21 8 37 26 51 20 16 22 21 10 21 -9 0 -32 -15 -51 -32 -35 -33
-36 -34 -119 -406 -92 -407 -93 -418 -39 -468 69 -64 217 -32 252 53 6 16 36
138 66 272 56 247 68 283 101 312 32 27 54 36 270 103 390 120 569 178 603
194 41 19 81 97 81 157 0 71 -63 137 -127 134 -10 0 -2 -5 17 -11z m-1070
-427 c0 -9 85 -26 109 -22 17 3 32 -20 23 -34 -16 -21 -32 -83 -47 -180 -8
-55 -32 -185 -52 -289 -33 -174 -38 -192 -67 -224 -25 -27 -40 -34 -68 -34
-19 0 -45 5 -57 11 -25 14 -51 61 -51 94 0 51 139 554 172 626 12 25 21 49 20
54 -1 4 3 7 8 7 6 0 10 -4 10 -9z"/>
<path d="M7705 8780 c-13 -6 -15 -9 -5 -9 8 0 22 4 30 9 18 12 2 12 -25 0z"/>
<path d="M7575 8740 c-13 -5 -14 -9 -5 -9 8 0 24 4 35 9 13 5 14 9 5 9 -8 0
-24 -4 -35 -9z"/>
<path d="M7290 8650 c-9 -6 -10 -10 -3 -10 6 0 15 5 18 10 8 12 4 12 -15 0z"/>
<path d="M7095 8590 c-13 -5 -14 -9 -5 -9 8 0 24 4 35 9 13 5 14 9 5 9 -8 0
-24 -4 -35 -9z"/>
<path d="M8086 8569 c-38 -30 -66 -91 -66 -144 0 -55 14 -72 243 -280 172
-156 207 -200 207 -258 0 -21 -43 -230 -96 -463 -60 -266 -93 -433 -88 -447
10 -33 60 -98 91 -119 42 -27 114 -24 151 7 35 29 21 -22 167 623 68 305 113
523 109 537 -3 13 -22 41 -41 62 -28 31 -30 32 -9 5 29 -37 33 -70 12 -110 -7
-15 -25 -70 -41 -122 -37 -130 -54 -168 -97 -217 -20 -24 -41 -49 -45 -56 -4
-7 -21 -21 -36 -30 l-28 -18 6 63 c3 35 15 117 27 184 23 133 20 173 -15 225
-12 19 -115 113 -227 210 -113 97 -215 191 -227 209 -33 48 -30 95 8 131 36
34 33 38 -5 8z"/>
<path d="M7000 8560 c-18 -12 -2 -12 25 0 13 6 15 9 5 9 -8 0 -22 -4 -30 -9z"/>
<path d="M7866 8401 c42 -26 60 -71 42 -107 -24 -50 -59 -64 -294 -121 -126
-30 -256 -63 -288 -74 -63 -19 -66 -19 -70 3 -9 53 -16 59 -63 55 -57 -5 -69
15 -29 50 31 27 17 31 -24 6 -38 -22 -54 -62 -90 -228 -37 -167 -41 -212 -18
-247 25 -37 82 -61 130 -54 79 13 100 43 132 189 17 76 46 125 86 147 10 5
121 42 246 81 125 39 236 76 246 83 24 14 58 85 58 120 0 49 -49 116 -85 116
-5 0 4 -9 21 -19z"/>
<path d="M7978 8180 c-32 -25 -58 -79 -58 -120 0 -27 14 -47 84 -119 46 -47
89 -96 95 -108 19 -37 13 -87 -39 -317 -27 -122 -50 -236 -50 -253 0 -33 47
-105 79 -122 56 -30 140 0 162 58 12 29 124 521 141 616 6 33 8 72 5 86 -9 35
-282 299 -309 299 -7 0 1 -9 17 -19 40 -26 265 -243 265 -256 0 -5 -5 -17 -10
-25 -8 -12 -26 1 -97 71 -149 145 -181 169 -224 169 -31 0 -39 4 -39 18 0 11
10 24 23 30 22 10 22 11 1 11 -12 1 -33 -8 -46 -19z m325 -382 c13 -7 17 -21
17 -63 0 -70 -64 -451 -85 -502 -42 -105 -175 -84 -175 28 0 58 89 382 137
497 26 61 27 63 57 56 17 -3 39 -10 49 -16z"/>
<path d="M7648 7903 c7 -3 16 -2 19 1 4 3 -2 6 -13 5 -11 0 -14 -3 -6 -6z"/>
<path d="M7506 7835 c-99 -99 -74 -278 47 -350 184 -107 394 60 337 267 -6 21
-14 40 -19 42 -4 3 -4 -11 2 -32 34 -128 -80 -271 -205 -258 -70 7 -123 39
-154 92 -48 81 -43 179 13 244 34 41 21 38 -21 -5z"/>
<path d="M7800 7867 c0 -2 15 -16 33 -33 l32 -29 -29 33 c-28 30 -36 37 -36
29z"/>
<path d="M7067 7600 c48 -11 68 -27 240 -188 87 -81 174 -159 193 -174 57 -43
102 -45 229 -9 70 20 120 29 136 25 30 -8 58 -44 50 -66 -5 -13 -11 -14 -46
-2 -34 12 -45 12 -81 -2 -24 -9 -77 -28 -120 -43 -54 -19 -87 -37 -113 -64
-20 -20 -42 -37 -49 -37 -28 0 -189 121 -408 307 -110 93 -128 116 -128 163 0
30 6 44 31 64 36 30 24 35 -14 6 -14 -11 -31 -36 -37 -55 -22 -68 -8 -86 255
-331 135 -125 254 -234 266 -242 33 -23 84 -16 224 27 188 59 213 70 235 98
55 70 -8 213 -93 213 -13 0 -69 -14 -124 -31 -154 -46 -132 -58 -428 217 -66
61 -130 116 -142 123 -12 6 -41 11 -65 10 -42 -1 -42 -1 -11 -9z"/>
<path d="M6665 7496 c-27 -7 -60 -18 -72 -24 -32 -17 -53 -63 -53 -113 0 -40
5 -47 88 -129 48 -47 170 -162 272 -255 102 -94 251 -232 332 -307 114 -106
155 -138 183 -144 28 -5 103 15 393 106 196 61 368 118 380 126 27 18 52 71
52 112 0 30 -43 104 -77 135 -42 37 -75 32 -348 -52 -143 -45 -274 -81 -290
-81 -17 0 -47 8 -67 18 -19 10 -174 146 -343 302 -169 157 -314 290 -323 296
-28 19 -75 23 -127 10z m70 -39 c17 -12 109 -94 205 -183 360 -332 466 -426
495 -442 58 -31 115 -21 390 66 144 45 273 82 288 82 44 0 87 -28 103 -66 12
-29 12 -39 1 -66 -28 -67 -33 -68 -452 -174 -123 -31 -246 -56 -279 -57 l-60
-2 -8 38 c-17 80 -48 123 -209 290 -164 170 -468 455 -508 477 -12 6 -38 10
-56 9 -41 -4 -52 5 -34 27 31 38 72 38 124 1z"/>
</g>
</svg>
